<?xml version="1.0" encoding="UTF-8"?>
<!DOCTYPE svg PUBLIC "-//W3C//DTD SVG 1.1//EN" "http://www.w3.org/Graphics/SVG/1.1/DTD/svg11.dtd">
<svg width="160mm" height="90mm" viewBox="0 0 16000 9000" version="1.1" xmlns="http://www.w3.org/2000/svg" xmlns:xlink="http://www.w3.org/1999/xlink" stroke-width="28.222" stroke-linejoin="round" xml:space="preserve">
 <path fill="rgb(255,255,255)" stroke="none" d="M 7992,8982 L -13,8982 -13,-13 15997,-13 15997,8982 7992,8982 Z"/>
 <path fill="none" stroke="rgb(179,179,179)" stroke-linejoin="round" d="M 7170,7175 L 3051,7175 3051,2321 11289,2321 11289,7175 7170,7175 Z"/>
 <path fill="none" stroke="rgb(179,179,179)" stroke-linejoin="round" d="M 11289,7174 L 3051,7174"/>
 <path fill="none" stroke="rgb(179,179,179)" stroke-linejoin="round" d="M 11289,6688 L 3051,6688"/>
 <path fill="none" stroke="rgb(179,179,179)" stroke-linejoin="round" d="M 11289,6203 L 3051,6203"/>
 <path fill="none" stroke="rgb(179,179,179)" stroke-linejoin="round" d="M 11289,5717 L 3051,5717"/>
 <path fill="none" stroke="rgb(179,179,179)" stroke-linejoin="round" d="M 11289,5232 L 3051,5232"/>
 <path fill="none" stroke="rgb(179,179,179)" stroke-linejoin="round" d="M 11289,4746 L 3051,4746"/>
 <path fill="none" stroke="rgb(179,179,179)" stroke-linejoin="round" d="M 11289,4262 L 3051,4262"/>
 <path fill="none" stroke="rgb(179,179,179)" stroke-linejoin="round" d="M 11289,3776 L 3051,3776"/>
 <path fill="none" stroke="rgb(179,179,179)" stroke-linejoin="round" d="M 11289,3290 L 3051,3290"/>
 <path fill="none" stroke="rgb(179,179,179)" stroke-linejoin="round" d="M 11289,2805 L 3051,2805"/>
 <path fill="none" stroke="rgb(179,179,179)" stroke-linejoin="round" d="M 11289,2319 L 3051,2319"/>
 <path fill="none" stroke="rgb(179,179,179)" stroke-linejoin="round" d="M 3051,7324 L 3051,7174"/>
 <path fill="none" stroke="rgb(179,179,179)" stroke-linejoin="round" d="M 3051,7324 L 3051,7174"/>
 <path fill="none" stroke="rgb(179,179,179)" stroke-linejoin="round" d="M 4424,7324 L 4424,7174"/>
 <path fill="none" stroke="rgb(179,179,179)" stroke-linejoin="round" d="M 4424,7324 L 4424,7174"/>
 <path fill="none" stroke="rgb(179,179,179)" stroke-linejoin="round" d="M 5797,7324 L 5797,7174"/>
 <path fill="none" stroke="rgb(179,179,179)" stroke-linejoin="round" d="M 5797,7324 L 5797,7174"/>
 <path fill="none" stroke="rgb(179,179,179)" stroke-linejoin="round" d="M 7170,7324 L 7170,7174"/>
 <path fill="none" stroke="rgb(179,179,179)" stroke-linejoin="round" d="M 7170,7324 L 7170,7174"/>
 <path fill="none" stroke="rgb(179,179,179)" stroke-linejoin="round" d="M 8542,7324 L 8542,7174"/>
 <path fill="none" stroke="rgb(179,179,179)" stroke-linejoin="round" d="M 8542,7324 L 8542,7174"/>
 <path fill="none" stroke="rgb(179,179,179)" stroke-linejoin="round" d="M 9915,7324 L 9915,7174"/>
 <path fill="none" stroke="rgb(179,179,179)" stroke-linejoin="round" d="M 9915,7324 L 9915,7174"/>
 <path fill="none" stroke="rgb(179,179,179)" stroke-linejoin="round" d="M 11289,7324 L 11289,7174"/>
 <path fill="none" stroke="rgb(179,179,179)" stroke-linejoin="round" d="M 11289,7324 L 11289,7174"/>
 <path fill="none" stroke="rgb(179,179,179)" stroke-linejoin="round" d="M 3051,7174 L 11289,7174"/>
 <path fill="none" stroke="rgb(179,179,179)" stroke-linejoin="round" d="M 2901,7174 L 3051,7174"/>
 <path fill="none" stroke="rgb(179,179,179)" stroke-linejoin="round" d="M 2901,7174 L 3051,7174"/>
 <path fill="none" stroke="rgb(179,179,179)" stroke-linejoin="round" d="M 2901,6688 L 3051,6688"/>
 <path fill="none" stroke="rgb(179,179,179)" stroke-linejoin="round" d="M 2901,6688 L 3051,6688"/>
 <path fill="none" stroke="rgb(179,179,179)" stroke-linejoin="round" d="M 2901,6203 L 3051,6203"/>
 <path fill="none" stroke="rgb(179,179,179)" stroke-linejoin="round" d="M 2901,6203 L 3051,6203"/>
 <path fill="none" stroke="rgb(179,179,179)" stroke-linejoin="round" d="M 2901,5717 L 3051,5717"/>
 <path fill="none" stroke="rgb(179,179,179)" stroke-linejoin="round" d="M 2901,5717 L 3051,5717"/>
 <path fill="none" stroke="rgb(179,179,179)" stroke-linejoin="round" d="M 2901,5232 L 3051,5232"/>
 <path fill="none" stroke="rgb(179,179,179)" stroke-linejoin="round" d="M 2901,5232 L 3051,5232"/>
 <path fill="none" stroke="rgb(179,179,179)" stroke-linejoin="round" d="M 2901,4746 L 3051,4746"/>
 <path fill="none" stroke="rgb(179,179,179)" stroke-linejoin="round" d="M 2901,4746 L 3051,4746"/>
 <path fill="none" stroke="rgb(179,179,179)" stroke-linejoin="round" d="M 2901,4262 L 3051,4262"/>
 <path fill="none" stroke="rgb(179,179,179)" stroke-linejoin="round" d="M 2901,4262 L 3051,4262"/>
 <path fill="none" stroke="rgb(179,179,179)" stroke-linejoin="round" d="M 2901,3776 L 3051,3776"/>
 <path fill="none" stroke="rgb(179,179,179)" stroke-linejoin="round" d="M 2901,3776 L 3051,3776"/>
 <path fill="none" stroke="rgb(179,179,179)" stroke-linejoin="round" d="M 2901,3291 L 3051,3291"/>
 <path fill="none" stroke="rgb(179,179,179)" stroke-linejoin="round" d="M 2901,3291 L 3051,3291"/>
 <path fill="none" stroke="rgb(179,179,179)" stroke-linejoin="round" d="M 2901,2805 L 3051,2805"/>
 <path fill="none" stroke="rgb(179,179,179)" stroke-linejoin="round" d="M 2901,2805 L 3051,2805"/>
 <path fill="none" stroke="rgb(179,179,179)" stroke-linejoin="round" d="M 2901,2320 L 3051,2320"/>
 <path fill="none" stroke="rgb(179,179,179)" stroke-linejoin="round" d="M 2901,2320 L 3051,2320"/>
 <path fill="none" stroke="rgb(179,179,179)" stroke-linejoin="round" d="M 3051,7174 L 3051,2320"/>
 <path fill="none" stroke="rgb(131,202,255)" stroke-width="80" stroke-linejoin="round" d="M 4424,7015 L 7170,5908 9915,2905"/>
 <path fill="rgb(131,202,255)" stroke="none" d="M 4299,7015 L 4549,7140 4549,6890 4299,7015 Z"/>
 <path fill="none" stroke="rgb(131,202,255)" stroke-linejoin="round" d="M 4299,7015 L 4549,7140 4549,6890 4299,7015 Z"/>
 <path fill="rgb(131,202,255)" stroke="none" d="M 7045,5908 L 7295,6033 7295,5783 7045,5908 Z"/>
 <path fill="none" stroke="rgb(131,202,255)" stroke-linejoin="round" d="M 7045,5908 L 7295,6033 7295,5783 7045,5908 Z"/>
 <path fill="rgb(131,202,255)" stroke="none" d="M 9790,2905 L 10040,3030 10040,2780 9790,2905 Z"/>
 <path fill="none" stroke="rgb(131,202,255)" stroke-linejoin="round" d="M 9790,2905 L 10040,3030 10040,2780 9790,2905 Z"/>
 <path fill="none" stroke="rgb(87,157,28)" stroke-width="80" stroke-linejoin="round" d="M 4424,7121 L 7170,6752 9915,5750"/>
 <path fill="rgb(87,157,28)" stroke="none" d="M 4299,7246 L 4549,7246 4424,6996 4299,7246 Z"/>
 <path fill="none" stroke="rgb(87,157,28)" stroke-linejoin="round" d="M 4299,7246 L 4549,7246 4424,6996 4299,7246 Z"/>
 <path fill="rgb(87,157,28)" stroke="none" d="M 7045,6877 L 7295,6877 7170,6627 7045,6877 Z"/>
 <path fill="none" stroke="rgb(87,157,28)" stroke-linejoin="round" d="M 7045,6877 L 7295,6877 7170,6627 7045,6877 Z"/>
 <path fill="rgb(87,157,28)" stroke="none" d="M 9790,5875 L 10040,5875 9915,5625 9790,5875 Z"/>
 <path fill="none" stroke="rgb(87,157,28)" stroke-linejoin="round" d="M 9790,5875 L 10040,5875 9915,5625 9790,5875 Z"/>
 <path fill="none" stroke="rgb(255,211,32)" stroke-width="80" stroke-linejoin="round" d="M 4424,7131 L 7170,6836 9915,6035"/>
 <path fill="rgb(255,211,32)" stroke="none" d="M 4299,7006 L 4424,7256 4549,7006 4299,7006 Z"/>
 <path fill="none" stroke="rgb(255,211,32)" stroke-linejoin="round" d="M 4299,7006 L 4424,7256 4549,7006 4299,7006 Z"/>
 <path fill="rgb(255,211,32)" stroke="none" d="M 7045,6711 L 7170,6961 7295,6711 7045,6711 Z"/>
 <path fill="none" stroke="rgb(255,211,32)" stroke-linejoin="round" d="M 7045,6711 L 7170,6961 7295,6711 7045,6711 Z"/>
 <path fill="rgb(255,211,32)" stroke="none" d="M 9790,5910 L 9915,6160 10040,5910 9790,5910 Z"/>
 <path fill="none" stroke="rgb(255,211,32)" stroke-linejoin="round" d="M 9790,5910 L 9915,6160 10040,5910 9790,5910 Z"/>
 <text class="SVGTextShape"><tspan class="TextParagraph" font-family="Liberation Sans, sans-serif" font-size="353px" font-weight="400"><tspan class="TextPosition" x="2773" y="7742"><tspan fill="rgb(0,0,0)" stroke="none" style="white-space: pre">500</tspan></tspan></tspan></text>
 <text class="SVGTextShape"><tspan class="TextParagraph" font-family="Liberation Sans, sans-serif" font-size="353px" font-weight="400"><tspan class="TextPosition" x="4053" y="7742"><tspan fill="rgb(0,0,0)" stroke="none" style="white-space: pre">1000</tspan></tspan></tspan></text>
 <text class="SVGTextShape"><tspan class="TextParagraph" font-family="Liberation Sans, sans-serif" font-size="353px" font-weight="400"><tspan class="TextPosition" x="5426" y="7742"><tspan fill="rgb(0,0,0)" stroke="none" style="white-space: pre">1500</tspan></tspan></tspan></text>
 <text class="SVGTextShape"><tspan class="TextParagraph" font-family="Liberation Sans, sans-serif" font-size="353px" font-weight="400"><tspan class="TextPosition" x="6799" y="7742"><tspan fill="rgb(0,0,0)" stroke="none" style="white-space: pre">2000</tspan></tspan></tspan></text>
 <text class="SVGTextShape"><tspan class="TextParagraph" font-family="Liberation Sans, sans-serif" font-size="353px" font-weight="400"><tspan class="TextPosition" x="8172" y="7742"><tspan fill="rgb(0,0,0)" stroke="none" style="white-space: pre">2500</tspan></tspan></tspan></text>
 <text class="SVGTextShape"><tspan class="TextParagraph" font-family="Liberation Sans, sans-serif" font-size="353px" font-weight="400"><tspan class="TextPosition" x="9545" y="7742"><tspan fill="rgb(0,0,0)" stroke="none" style="white-space: pre">3000</tspan></tspan></tspan></text>
 <text class="SVGTextShape"><tspan class="TextParagraph" font-family="Liberation Sans, sans-serif" font-size="353px" font-weight="400"><tspan class="TextPosition" x="10919" y="7742"><tspan fill="rgb(0,0,0)" stroke="none" style="white-space: pre">3500</tspan></tspan></tspan></text>
 <text class="SVGTextShape"><tspan class="TextParagraph" font-family="Liberation Sans, sans-serif" font-size="353px" font-weight="400"><tspan class="TextPosition" x="1319" y="7295"><tspan fill="rgb(0,0,0)" stroke="none" style="white-space: pre">0.00E+00</tspan></tspan></tspan></text>
 <text class="SVGTextShape"><tspan class="TextParagraph" font-family="Liberation Sans, sans-serif" font-size="353px" font-weight="400"><tspan class="TextPosition" x="1425" y="6809"><tspan fill="rgb(0,0,0)" stroke="none" style="white-space: pre">2.00E-02</tspan></tspan></tspan></text>
 <text class="SVGTextShape"><tspan class="TextParagraph" font-family="Liberation Sans, sans-serif" font-size="353px" font-weight="400"><tspan class="TextPosition" x="1425" y="6324"><tspan fill="rgb(0,0,0)" stroke="none" style="white-space: pre">4.00E-02</tspan></tspan></tspan></text>
 <text class="SVGTextShape"><tspan class="TextParagraph" font-family="Liberation Sans, sans-serif" font-size="353px" font-weight="400"><tspan class="TextPosition" x="1425" y="5838"><tspan fill="rgb(0,0,0)" stroke="none" style="white-space: pre">6.00E-02</tspan></tspan></tspan></text>
 <text class="SVGTextShape"><tspan class="TextParagraph" font-family="Liberation Sans, sans-serif" font-size="353px" font-weight="400"><tspan class="TextPosition" x="1425" y="5353"><tspan fill="rgb(0,0,0)" stroke="none" style="white-space: pre">8.00E-02</tspan></tspan></tspan></text>
 <text class="SVGTextShape"><tspan class="TextParagraph" font-family="Liberation Sans, sans-serif" font-size="353px" font-weight="400"><tspan class="TextPosition" x="1425" y="4867"><tspan fill="rgb(0,0,0)" stroke="none" style="white-space: pre">1.00E-01</tspan></tspan></tspan></text>
 <text class="SVGTextShape"><tspan class="TextParagraph" font-family="Liberation Sans, sans-serif" font-size="353px" font-weight="400"><tspan class="TextPosition" x="1425" y="4382"><tspan fill="rgb(0,0,0)" stroke="none" style="white-space: pre">1.20E-01</tspan></tspan></tspan></text>
 <text class="SVGTextShape"><tspan class="TextParagraph" font-family="Liberation Sans, sans-serif" font-size="353px" font-weight="400"><tspan class="TextPosition" x="1425" y="3896"><tspan fill="rgb(0,0,0)" stroke="none" style="white-space: pre">1.40E-01</tspan></tspan></tspan></text>
 <text class="SVGTextShape"><tspan class="TextParagraph" font-family="Liberation Sans, sans-serif" font-size="353px" font-weight="400"><tspan class="TextPosition" x="1425" y="3411"><tspan fill="rgb(0,0,0)" stroke="none" style="white-space: pre">1.60E-01</tspan></tspan></tspan></text>
 <text class="SVGTextShape"><tspan class="TextParagraph" font-family="Liberation Sans, sans-serif" font-size="353px" font-weight="400"><tspan class="TextPosition" x="1425" y="2925"><tspan fill="rgb(0,0,0)" stroke="none" style="white-space: pre">1.80E-01</tspan></tspan></tspan></text>
 <text class="SVGTextShape"><tspan class="TextParagraph" font-family="Liberation Sans, sans-serif" font-size="353px" font-weight="400"><tspan class="TextPosition" x="1425" y="2440"><tspan fill="rgb(0,0,0)" stroke="none" style="white-space: pre">2.00E-01</tspan></tspan></tspan></text>
 <text class="SVGTextShape"><tspan class="TextParagraph" font-family="Liberation Sans, sans-serif" font-size="459px" font-weight="400"><tspan class="TextPosition" x="5928" y="837"><tspan fill="rgb(0,0,0)" stroke="none" style="white-space: pre">Tiempo de Ejecución</tspan></tspan></tspan></text>
 <text class="SVGTextShape"><tspan class="TextParagraph" font-family="Liberation Sans, sans-serif" font-size="388px" font-weight="400"><tspan class="TextPosition" x="6973" y="1746"><tspan fill="rgb(0,0,0)" stroke="none" style="white-space: pre">MyDGEMM</tspan></tspan></tspan></text>
 <path fill="none" stroke="rgb(255,211,32)" stroke-width="80" stroke-linejoin="round" d="M 12097,3986 L 12897,3986"/>
 <path fill="rgb(255,211,32)" stroke="none" d="M 12391,3881 L 12497,4092 12602,3881 12391,3881 Z"/>
 <path fill="none" stroke="rgb(255,211,32)" stroke-linejoin="round" d="M 12391,3881 L 12497,4092 12602,3881 12391,3881 Z"/>
 <path fill="none" stroke="rgb(87,157,28)" stroke-width="80" stroke-linejoin="round" d="M 12097,4484 L 12897,4484"/>
 <path fill="rgb(87,157,28)" stroke="none" d="M 12391,4589 L 12602,4589 12497,4379 12391,4589 Z"/>
 <path fill="none" stroke="rgb(87,157,28)" stroke-linejoin="round" d="M 12391,4589 L 12602,4589 12497,4379 12391,4589 Z"/>
 <path fill="none" stroke="rgb(131,202,255)" stroke-width="80" stroke-linejoin="round" d="M 12097,4981 L 12897,4981"/>
 <path fill="rgb(131,202,255)" stroke="none" d="M 12391,4981 L 12602,5087 12602,4876 12391,4981 Z"/>
 <path fill="none" stroke="rgb(131,202,255)" stroke-linejoin="round" d="M 12391,4981 L 12602,5087 12602,4876 12391,4981 Z"/>
 <text class="SVGTextShape"><tspan class="TextParagraph" font-family="Liberation Sans, sans-serif" font-size="353px" font-weight="400"><tspan class="TextPosition" x="12997" y="4106"><tspan fill="rgb(0,0,0)" stroke="none" style="white-space: pre">ryzen_secuencial</tspan></tspan></tspan></text>
 <text class="SVGTextShape"><tspan class="TextParagraph" font-family="Liberation Sans, sans-serif" font-size="353px" font-weight="400"><tspan class="TextPosition" x="12997" y="4603"><tspan fill="rgb(0,0,0)" stroke="none" style="white-space: pre">ryzen_paralelo</tspan></tspan></tspan></text>
 <text class="SVGTextShape"><tspan class="TextParagraph" font-family="Liberation Sans, sans-serif" font-size="353px" font-weight="400"><tspan class="TextPosition" x="12997" y="5101"><tspan fill="rgb(0,0,0)" stroke="none" style="white-space: pre">xeon_paralelo</tspan></tspan></tspan></text>
 <text class="SVGTextShape"><tspan class="TextParagraph" font-family="Liberation Sans, sans-serif" font-size="318px" font-weight="400"><tspan class="TextPosition" x="6133" y="8388"><tspan fill="rgb(0,0,0)" stroke="none" style="white-space: pre">Talla</tspan></tspan></tspan></text>
 <text class="SVGTextShape" transform="rotate(-90 824 5514)"><tspan class="TextParagraph" font-family="Liberation Sans, sans-serif" font-size="318px" font-weight="400"><tspan class="TextPosition" x="824" y="5514"><tspan fill="rgb(0,0,0)" stroke="none" style="white-space: pre">Tiempo</tspan></tspan></tspan></text>
</svg>