<?xml version="1.0" encoding="UTF-8"?>
<!DOCTYPE svg PUBLIC "-//W3C//DTD SVG 1.1//EN" "http://www.w3.org/Graphics/SVG/1.1/DTD/svg11.dtd">
<svg width="160mm" height="90mm" viewBox="0 0 16000 9000" version="1.1" xmlns="http://www.w3.org/2000/svg" xmlns:xlink="http://www.w3.org/1999/xlink" stroke-width="28.222" stroke-linejoin="round" xml:space="preserve">
 <path fill="rgb(255,255,255)" stroke="none" d="M 7992,8982 L -13,8982 -13,-13 15997,-13 15997,8982 7992,8982 Z"/>
 <path fill="none" stroke="rgb(179,179,179)" stroke-linejoin="round" d="M 7170,7175 L 3051,7175 3051,2321 11289,2321 11289,7175 7170,7175 Z"/>
 <path fill="none" stroke="rgb(179,179,179)" stroke-linejoin="round" d="M 11289,7174 L 3051,7174"/>
 <path fill="none" stroke="rgb(179,179,179)" stroke-linejoin="round" d="M 11289,6480 L 3051,6480"/>
 <path fill="none" stroke="rgb(179,179,179)" stroke-linejoin="round" d="M 11289,5786 L 3051,5786"/>
 <path fill="none" stroke="rgb(179,179,179)" stroke-linejoin="round" d="M 11289,5093 L 3051,5093"/>
 <path fill="none" stroke="rgb(179,179,179)" stroke-linejoin="round" d="M 11289,4400 L 3051,4400"/>
 <path fill="none" stroke="rgb(179,179,179)" stroke-linejoin="round" d="M 11289,3707 L 3051,3707"/>
 <path fill="none" stroke="rgb(179,179,179)" stroke-linejoin="round" d="M 11289,3013 L 3051,3013"/>
 <path fill="none" stroke="rgb(179,179,179)" stroke-linejoin="round" d="M 11289,2320 L 3051,2320"/>
 <path fill="none" stroke="rgb(179,179,179)" stroke-linejoin="round" d="M 3051,7324 L 3051,7174"/>
 <path fill="none" stroke="rgb(179,179,179)" stroke-linejoin="round" d="M 3051,7324 L 3051,7174"/>
 <path fill="none" stroke="rgb(179,179,179)" stroke-linejoin="round" d="M 4424,7324 L 4424,7174"/>
 <path fill="none" stroke="rgb(179,179,179)" stroke-linejoin="round" d="M 4424,7324 L 4424,7174"/>
 <path fill="none" stroke="rgb(179,179,179)" stroke-linejoin="round" d="M 5797,7324 L 5797,7174"/>
 <path fill="none" stroke="rgb(179,179,179)" stroke-linejoin="round" d="M 5797,7324 L 5797,7174"/>
 <path fill="none" stroke="rgb(179,179,179)" stroke-linejoin="round" d="M 7170,7324 L 7170,7174"/>
 <path fill="none" stroke="rgb(179,179,179)" stroke-linejoin="round" d="M 7170,7324 L 7170,7174"/>
 <path fill="none" stroke="rgb(179,179,179)" stroke-linejoin="round" d="M 8542,7324 L 8542,7174"/>
 <path fill="none" stroke="rgb(179,179,179)" stroke-linejoin="round" d="M 8542,7324 L 8542,7174"/>
 <path fill="none" stroke="rgb(179,179,179)" stroke-linejoin="round" d="M 9915,7324 L 9915,7174"/>
 <path fill="none" stroke="rgb(179,179,179)" stroke-linejoin="round" d="M 9915,7324 L 9915,7174"/>
 <path fill="none" stroke="rgb(179,179,179)" stroke-linejoin="round" d="M 11289,7324 L 11289,7174"/>
 <path fill="none" stroke="rgb(179,179,179)" stroke-linejoin="round" d="M 11289,7324 L 11289,7174"/>
 <path fill="none" stroke="rgb(179,179,179)" stroke-linejoin="round" d="M 3051,7174 L 11289,7174"/>
 <path fill="none" stroke="rgb(179,179,179)" stroke-linejoin="round" d="M 2901,7174 L 3051,7174"/>
 <path fill="none" stroke="rgb(179,179,179)" stroke-linejoin="round" d="M 2901,7174 L 3051,7174"/>
 <path fill="none" stroke="rgb(179,179,179)" stroke-linejoin="round" d="M 2901,6480 L 3051,6480"/>
 <path fill="none" stroke="rgb(179,179,179)" stroke-linejoin="round" d="M 2901,6480 L 3051,6480"/>
 <path fill="none" stroke="rgb(179,179,179)" stroke-linejoin="round" d="M 2901,5786 L 3051,5786"/>
 <path fill="none" stroke="rgb(179,179,179)" stroke-linejoin="round" d="M 2901,5786 L 3051,5786"/>
 <path fill="none" stroke="rgb(179,179,179)" stroke-linejoin="round" d="M 2901,5093 L 3051,5093"/>
 <path fill="none" stroke="rgb(179,179,179)" stroke-linejoin="round" d="M 2901,5093 L 3051,5093"/>
 <path fill="none" stroke="rgb(179,179,179)" stroke-linejoin="round" d="M 2901,4400 L 3051,4400"/>
 <path fill="none" stroke="rgb(179,179,179)" stroke-linejoin="round" d="M 2901,4400 L 3051,4400"/>
 <path fill="none" stroke="rgb(179,179,179)" stroke-linejoin="round" d="M 2901,3707 L 3051,3707"/>
 <path fill="none" stroke="rgb(179,179,179)" stroke-linejoin="round" d="M 2901,3707 L 3051,3707"/>
 <path fill="none" stroke="rgb(179,179,179)" stroke-linejoin="round" d="M 2901,3013 L 3051,3013"/>
 <path fill="none" stroke="rgb(179,179,179)" stroke-linejoin="round" d="M 2901,3013 L 3051,3013"/>
 <path fill="none" stroke="rgb(179,179,179)" stroke-linejoin="round" d="M 2901,2320 L 3051,2320"/>
 <path fill="none" stroke="rgb(179,179,179)" stroke-linejoin="round" d="M 2901,2320 L 3051,2320"/>
 <path fill="none" stroke="rgb(179,179,179)" stroke-linejoin="round" d="M 3051,7174 L 3051,2320"/>
 <path fill="none" stroke="rgb(87,157,28)" stroke-width="80" stroke-linejoin="round" d="M 4424,7023 L 7170,5968 9915,3108"/>
 <path fill="rgb(87,157,28)" stroke="none" d="M 4299,7148 L 4549,7148 4424,6898 4299,7148 Z"/>
 <path fill="none" stroke="rgb(87,157,28)" stroke-linejoin="round" d="M 4299,7148 L 4549,7148 4424,6898 4299,7148 Z"/>
 <path fill="rgb(87,157,28)" stroke="none" d="M 7045,6093 L 7295,6093 7170,5843 7045,6093 Z"/>
 <path fill="none" stroke="rgb(87,157,28)" stroke-linejoin="round" d="M 7045,6093 L 7295,6093 7170,5843 7045,6093 Z"/>
 <path fill="rgb(87,157,28)" stroke="none" d="M 9790,3233 L 10040,3233 9915,2983 9790,3233 Z"/>
 <path fill="none" stroke="rgb(87,157,28)" stroke-linejoin="round" d="M 9790,3233 L 10040,3233 9915,2983 9790,3233 Z"/>
 <path fill="none" stroke="rgb(255,211,32)" stroke-width="80" stroke-linejoin="round" d="M 4424,7053 L 7170,6209 9915,3921"/>
 <path fill="rgb(255,211,32)" stroke="none" d="M 4299,6928 L 4424,7178 4549,6928 4299,6928 Z"/>
 <path fill="none" stroke="rgb(255,211,32)" stroke-linejoin="round" d="M 4299,6928 L 4424,7178 4549,6928 4299,6928 Z"/>
 <path fill="rgb(255,211,32)" stroke="none" d="M 7045,6084 L 7170,6334 7295,6084 7045,6084 Z"/>
 <path fill="none" stroke="rgb(255,211,32)" stroke-linejoin="round" d="M 7045,6084 L 7170,6334 7295,6084 7045,6084 Z"/>
 <path fill="rgb(255,211,32)" stroke="none" d="M 9790,3796 L 9915,4046 10040,3796 9790,3796 Z"/>
 <path fill="none" stroke="rgb(255,211,32)" stroke-linejoin="round" d="M 9790,3796 L 9915,4046 10040,3796 9790,3796 Z"/>
 <text class="SVGTextShape"><tspan class="TextParagraph" font-family="Liberation Sans, sans-serif" font-size="353px" font-weight="400"><tspan class="TextPosition" x="2773" y="7742"><tspan fill="rgb(0,0,0)" stroke="none" style="white-space: pre">500</tspan></tspan></tspan></text>
 <text class="SVGTextShape"><tspan class="TextParagraph" font-family="Liberation Sans, sans-serif" font-size="353px" font-weight="400"><tspan class="TextPosition" x="4053" y="7742"><tspan fill="rgb(0,0,0)" stroke="none" style="white-space: pre">1000</tspan></tspan></tspan></text>
 <text class="SVGTextShape"><tspan class="TextParagraph" font-family="Liberation Sans, sans-serif" font-size="353px" font-weight="400"><tspan class="TextPosition" x="5426" y="7742"><tspan fill="rgb(0,0,0)" stroke="none" style="white-space: pre">1500</tspan></tspan></tspan></text>
 <text class="SVGTextShape"><tspan class="TextParagraph" font-family="Liberation Sans, sans-serif" font-size="353px" font-weight="400"><tspan class="TextPosition" x="6799" y="7742"><tspan fill="rgb(0,0,0)" stroke="none" style="white-space: pre">2000</tspan></tspan></tspan></text>
 <text class="SVGTextShape"><tspan class="TextParagraph" font-family="Liberation Sans, sans-serif" font-size="353px" font-weight="400"><tspan class="TextPosition" x="8172" y="7742"><tspan fill="rgb(0,0,0)" stroke="none" style="white-space: pre">2500</tspan></tspan></tspan></text>
 <text class="SVGTextShape"><tspan class="TextParagraph" font-family="Liberation Sans, sans-serif" font-size="353px" font-weight="400"><tspan class="TextPosition" x="9545" y="7742"><tspan fill="rgb(0,0,0)" stroke="none" style="white-space: pre">3000</tspan></tspan></tspan></text>
 <text class="SVGTextShape"><tspan class="TextParagraph" font-family="Liberation Sans, sans-serif" font-size="353px" font-weight="400"><tspan class="TextPosition" x="10919" y="7742"><tspan fill="rgb(0,0,0)" stroke="none" style="white-space: pre">3500</tspan></tspan></tspan></text>
 <text class="SVGTextShape"><tspan class="TextParagraph" font-family="Liberation Sans, sans-serif" font-size="353px" font-weight="400"><tspan class="TextPosition" x="1319" y="7295"><tspan fill="rgb(0,0,0)" stroke="none" style="white-space: pre">0.00E+00</tspan></tspan></tspan></text>
 <text class="SVGTextShape"><tspan class="TextParagraph" font-family="Liberation Sans, sans-serif" font-size="353px" font-weight="400"><tspan class="TextPosition" x="1425" y="6601"><tspan fill="rgb(0,0,0)" stroke="none" style="white-space: pre">1.00E-02</tspan></tspan></tspan></text>
 <text class="SVGTextShape"><tspan class="TextParagraph" font-family="Liberation Sans, sans-serif" font-size="353px" font-weight="400"><tspan class="TextPosition" x="1425" y="5907"><tspan fill="rgb(0,0,0)" stroke="none" style="white-space: pre">2.00E-02</tspan></tspan></tspan></text>
 <text class="SVGTextShape"><tspan class="TextParagraph" font-family="Liberation Sans, sans-serif" font-size="353px" font-weight="400"><tspan class="TextPosition" x="1425" y="5214"><tspan fill="rgb(0,0,0)" stroke="none" style="white-space: pre">3.00E-02</tspan></tspan></tspan></text>
 <text class="SVGTextShape"><tspan class="TextParagraph" font-family="Liberation Sans, sans-serif" font-size="353px" font-weight="400"><tspan class="TextPosition" x="1425" y="4520"><tspan fill="rgb(0,0,0)" stroke="none" style="white-space: pre">4.00E-02</tspan></tspan></tspan></text>
 <text class="SVGTextShape"><tspan class="TextParagraph" font-family="Liberation Sans, sans-serif" font-size="353px" font-weight="400"><tspan class="TextPosition" x="1425" y="3827"><tspan fill="rgb(0,0,0)" stroke="none" style="white-space: pre">5.00E-02</tspan></tspan></tspan></text>
 <text class="SVGTextShape"><tspan class="TextParagraph" font-family="Liberation Sans, sans-serif" font-size="353px" font-weight="400"><tspan class="TextPosition" x="1425" y="3133"><tspan fill="rgb(0,0,0)" stroke="none" style="white-space: pre">6.00E-02</tspan></tspan></tspan></text>
 <text class="SVGTextShape"><tspan class="TextParagraph" font-family="Liberation Sans, sans-serif" font-size="353px" font-weight="400"><tspan class="TextPosition" x="1425" y="2440"><tspan fill="rgb(0,0,0)" stroke="none" style="white-space: pre">7.00E-02</tspan></tspan></tspan></text>
 <text class="SVGTextShape"><tspan class="TextParagraph" font-family="Liberation Sans, sans-serif" font-size="459px" font-weight="400"><tspan class="TextPosition" x="5928" y="837"><tspan fill="rgb(0,0,0)" stroke="none" style="white-space: pre">Tiempo de Ejecución</tspan></tspan></tspan></text>
 <text class="SVGTextShape"><tspan class="TextParagraph" font-family="Liberation Sans, sans-serif" font-size="388px" font-weight="400"><tspan class="TextPosition" x="6841" y="1746"><tspan fill="rgb(0,0,0)" stroke="none" style="white-space: pre">MyDGEMMB</tspan></tspan></tspan></text>
 <path fill="none" stroke="rgb(255,211,32)" stroke-width="80" stroke-linejoin="round" d="M 12097,4235 L 12897,4235"/>
 <path fill="rgb(255,211,32)" stroke="none" d="M 12391,4130 L 12497,4341 12602,4130 12391,4130 Z"/>
 <path fill="none" stroke="rgb(255,211,32)" stroke-linejoin="round" d="M 12391,4130 L 12497,4341 12602,4130 12391,4130 Z"/>
 <path fill="none" stroke="rgb(87,157,28)" stroke-width="80" stroke-linejoin="round" d="M 12097,4732 L 12897,4732"/>
 <path fill="rgb(87,157,28)" stroke="none" d="M 12391,4838 L 12602,4838 12497,4627 12391,4838 Z"/>
 <path fill="none" stroke="rgb(87,157,28)" stroke-linejoin="round" d="M 12391,4838 L 12602,4838 12497,4627 12391,4838 Z"/>
 <text class="SVGTextShape"><tspan class="TextParagraph" font-family="Liberation Sans, sans-serif" font-size="353px" font-weight="400"><tspan class="TextPosition" x="12997" y="4355"><tspan fill="rgb(0,0,0)" stroke="none" style="white-space: pre">ryzen_secuencial</tspan></tspan></tspan></text>
 <text class="SVGTextShape"><tspan class="TextParagraph" font-family="Liberation Sans, sans-serif" font-size="353px" font-weight="400"><tspan class="TextPosition" x="12997" y="4852"><tspan fill="rgb(0,0,0)" stroke="none" style="white-space: pre">ryzen_paralelo</tspan></tspan></tspan></text>
 <text class="SVGTextShape"><tspan class="TextParagraph" font-family="Liberation Sans, sans-serif" font-size="318px" font-weight="400"><tspan class="TextPosition" x="6133" y="8388"><tspan fill="rgb(0,0,0)" stroke="none" style="white-space: pre">Talla</tspan></tspan></tspan></text>
 <text class="SVGTextShape" transform="rotate(-90 824 5514)"><tspan class="TextParagraph" font-family="Liberation Sans, sans-serif" font-size="318px" font-weight="400"><tspan class="TextPosition" x="824" y="5514"><tspan fill="rgb(0,0,0)" stroke="none" style="white-space: pre">Tiempo</tspan></tspan></tspan></text>
</svg>