<?xml version="1.0" encoding="UTF-8"?>
<!DOCTYPE svg PUBLIC "-//W3C//DTD SVG 1.1//EN" "http://www.w3.org/Graphics/SVG/1.1/DTD/svg11.dtd">
<svg width="160mm" height="90mm" viewBox="0 0 16000 9000" version="1.1" xmlns="http://www.w3.org/2000/svg" xmlns:xlink="http://www.w3.org/1999/xlink" stroke-width="28.222" stroke-linejoin="round" xml:space="preserve">
 <path fill="rgb(255,255,255)" stroke="none" d="M 7992,8982 L -13,8982 -13,-13 15997,-13 15997,8982 7992,8982 Z"/>
 <path fill="none" stroke="rgb(179,179,179)" stroke-linejoin="round" d="M 6892,7175 L 3051,7175 3051,2321 10733,2321 10733,7175 6892,7175 Z"/>
 <path fill="none" stroke="rgb(179,179,179)" stroke-linejoin="round" d="M 10733,7174 L 3051,7174"/>
 <path fill="none" stroke="rgb(179,179,179)" stroke-linejoin="round" d="M 10733,6634 L 3051,6634"/>
 <path fill="none" stroke="rgb(179,179,179)" stroke-linejoin="round" d="M 10733,6095 L 3051,6095"/>
 <path fill="none" stroke="rgb(179,179,179)" stroke-linejoin="round" d="M 10733,5555 L 3051,5555"/>
 <path fill="none" stroke="rgb(179,179,179)" stroke-linejoin="round" d="M 10733,5016 L 3051,5016"/>
 <path fill="none" stroke="rgb(179,179,179)" stroke-linejoin="round" d="M 10733,4477 L 3051,4477"/>
 <path fill="none" stroke="rgb(179,179,179)" stroke-linejoin="round" d="M 10733,3938 L 3051,3938"/>
 <path fill="none" stroke="rgb(179,179,179)" stroke-linejoin="round" d="M 10733,3398 L 3051,3398"/>
 <path fill="none" stroke="rgb(179,179,179)" stroke-linejoin="round" d="M 10733,2859 L 3051,2859"/>
 <path fill="none" stroke="rgb(179,179,179)" stroke-linejoin="round" d="M 10733,2320 L 3051,2320"/>
 <path fill="none" stroke="rgb(179,179,179)" stroke-linejoin="round" d="M 3051,7324 L 3051,7174"/>
 <path fill="none" stroke="rgb(179,179,179)" stroke-linejoin="round" d="M 3051,7324 L 3051,7174"/>
 <path fill="none" stroke="rgb(179,179,179)" stroke-linejoin="round" d="M 4331,7324 L 4331,7174"/>
 <path fill="none" stroke="rgb(179,179,179)" stroke-linejoin="round" d="M 4331,7324 L 4331,7174"/>
 <path fill="none" stroke="rgb(179,179,179)" stroke-linejoin="round" d="M 5612,7324 L 5612,7174"/>
 <path fill="none" stroke="rgb(179,179,179)" stroke-linejoin="round" d="M 5612,7324 L 5612,7174"/>
 <path fill="none" stroke="rgb(179,179,179)" stroke-linejoin="round" d="M 6892,7324 L 6892,7174"/>
 <path fill="none" stroke="rgb(179,179,179)" stroke-linejoin="round" d="M 6892,7324 L 6892,7174"/>
 <path fill="none" stroke="rgb(179,179,179)" stroke-linejoin="round" d="M 8172,7324 L 8172,7174"/>
 <path fill="none" stroke="rgb(179,179,179)" stroke-linejoin="round" d="M 8172,7324 L 8172,7174"/>
 <path fill="none" stroke="rgb(179,179,179)" stroke-linejoin="round" d="M 9452,7324 L 9452,7174"/>
 <path fill="none" stroke="rgb(179,179,179)" stroke-linejoin="round" d="M 9452,7324 L 9452,7174"/>
 <path fill="none" stroke="rgb(179,179,179)" stroke-linejoin="round" d="M 10733,7324 L 10733,7174"/>
 <path fill="none" stroke="rgb(179,179,179)" stroke-linejoin="round" d="M 10733,7324 L 10733,7174"/>
 <path fill="none" stroke="rgb(179,179,179)" stroke-linejoin="round" d="M 3051,7174 L 10733,7174"/>
 <path fill="none" stroke="rgb(179,179,179)" stroke-linejoin="round" d="M 2901,7174 L 3051,7174"/>
 <path fill="none" stroke="rgb(179,179,179)" stroke-linejoin="round" d="M 2901,7174 L 3051,7174"/>
 <path fill="none" stroke="rgb(179,179,179)" stroke-linejoin="round" d="M 2901,6634 L 3051,6634"/>
 <path fill="none" stroke="rgb(179,179,179)" stroke-linejoin="round" d="M 2901,6634 L 3051,6634"/>
 <path fill="none" stroke="rgb(179,179,179)" stroke-linejoin="round" d="M 2901,6095 L 3051,6095"/>
 <path fill="none" stroke="rgb(179,179,179)" stroke-linejoin="round" d="M 2901,6095 L 3051,6095"/>
 <path fill="none" stroke="rgb(179,179,179)" stroke-linejoin="round" d="M 2901,5555 L 3051,5555"/>
 <path fill="none" stroke="rgb(179,179,179)" stroke-linejoin="round" d="M 2901,5555 L 3051,5555"/>
 <path fill="none" stroke="rgb(179,179,179)" stroke-linejoin="round" d="M 2901,5016 L 3051,5016"/>
 <path fill="none" stroke="rgb(179,179,179)" stroke-linejoin="round" d="M 2901,5016 L 3051,5016"/>
 <path fill="none" stroke="rgb(179,179,179)" stroke-linejoin="round" d="M 2901,4477 L 3051,4477"/>
 <path fill="none" stroke="rgb(179,179,179)" stroke-linejoin="round" d="M 2901,4477 L 3051,4477"/>
 <path fill="none" stroke="rgb(179,179,179)" stroke-linejoin="round" d="M 2901,3938 L 3051,3938"/>
 <path fill="none" stroke="rgb(179,179,179)" stroke-linejoin="round" d="M 2901,3938 L 3051,3938"/>
 <path fill="none" stroke="rgb(179,179,179)" stroke-linejoin="round" d="M 2901,3398 L 3051,3398"/>
 <path fill="none" stroke="rgb(179,179,179)" stroke-linejoin="round" d="M 2901,3398 L 3051,3398"/>
 <path fill="none" stroke="rgb(179,179,179)" stroke-linejoin="round" d="M 2901,2859 L 3051,2859"/>
 <path fill="none" stroke="rgb(179,179,179)" stroke-linejoin="round" d="M 2901,2859 L 3051,2859"/>
 <path fill="none" stroke="rgb(179,179,179)" stroke-linejoin="round" d="M 2901,2320 L 3051,2320"/>
 <path fill="none" stroke="rgb(179,179,179)" stroke-linejoin="round" d="M 2901,2320 L 3051,2320"/>
 <path fill="none" stroke="rgb(179,179,179)" stroke-linejoin="round" d="M 3051,7174 L 3051,2320"/>
 <path fill="none" stroke="rgb(255,66,14)" stroke-width="80" stroke-linejoin="round" d="M 4331,7166 L 6892,6975 9452,6439"/>
 <path fill="rgb(255,66,14)" stroke="none" d="M 4206,7166 L 4331,7291 4456,7166 4331,7041 4206,7166 Z"/>
 <path fill="none" stroke="rgb(255,66,14)" stroke-linejoin="round" d="M 4206,7166 L 4331,7291 4456,7166 4331,7041 4206,7166 Z"/>
 <path fill="rgb(255,66,14)" stroke="none" d="M 6767,6975 L 6892,7100 7017,6975 6892,6850 6767,6975 Z"/>
 <path fill="none" stroke="rgb(255,66,14)" stroke-linejoin="round" d="M 6767,6975 L 6892,7100 7017,6975 6892,6850 6767,6975 Z"/>
 <path fill="rgb(255,66,14)" stroke="none" d="M 9327,6439 L 9452,6564 9577,6439 9452,6314 9327,6439 Z"/>
 <path fill="none" stroke="rgb(255,66,14)" stroke-linejoin="round" d="M 9327,6439 L 9452,6564 9577,6439 9452,6314 9327,6439 Z"/>
 <path fill="none" stroke="rgb(87,157,28)" stroke-width="80" stroke-linejoin="round" d="M 4331,7016 L 6892,5916 9452,2882"/>
 <path fill="rgb(87,157,28)" stroke="none" d="M 4206,7141 L 4456,7141 4331,6891 4206,7141 Z"/>
 <path fill="none" stroke="rgb(87,157,28)" stroke-linejoin="round" d="M 4206,7141 L 4456,7141 4331,6891 4206,7141 Z"/>
 <path fill="rgb(87,157,28)" stroke="none" d="M 6767,6041 L 7017,6041 6892,5791 6767,6041 Z"/>
 <path fill="none" stroke="rgb(87,157,28)" stroke-linejoin="round" d="M 6767,6041 L 7017,6041 6892,5791 6767,6041 Z"/>
 <path fill="rgb(87,157,28)" stroke="none" d="M 9327,3007 L 9577,3007 9452,2757 9327,3007 Z"/>
 <path fill="none" stroke="rgb(87,157,28)" stroke-linejoin="round" d="M 9327,3007 L 9577,3007 9452,2757 9327,3007 Z"/>
 <text class="SVGTextShape"><tspan class="TextParagraph" font-family="Liberation Sans, sans-serif" font-size="353px" font-weight="400"><tspan class="TextPosition" x="2773" y="7742"><tspan fill="rgb(0,0,0)" stroke="none" style="white-space: pre">500</tspan></tspan></tspan></text>
 <text class="SVGTextShape"><tspan class="TextParagraph" font-family="Liberation Sans, sans-serif" font-size="353px" font-weight="400"><tspan class="TextPosition" x="3960" y="7742"><tspan fill="rgb(0,0,0)" stroke="none" style="white-space: pre">1000</tspan></tspan></tspan></text>
 <text class="SVGTextShape"><tspan class="TextParagraph" font-family="Liberation Sans, sans-serif" font-size="353px" font-weight="400"><tspan class="TextPosition" x="5241" y="7742"><tspan fill="rgb(0,0,0)" stroke="none" style="white-space: pre">1500</tspan></tspan></tspan></text>
 <text class="SVGTextShape"><tspan class="TextParagraph" font-family="Liberation Sans, sans-serif" font-size="353px" font-weight="400"><tspan class="TextPosition" x="6521" y="7742"><tspan fill="rgb(0,0,0)" stroke="none" style="white-space: pre">2000</tspan></tspan></tspan></text>
 <text class="SVGTextShape"><tspan class="TextParagraph" font-family="Liberation Sans, sans-serif" font-size="353px" font-weight="400"><tspan class="TextPosition" x="7802" y="7742"><tspan fill="rgb(0,0,0)" stroke="none" style="white-space: pre">2500</tspan></tspan></tspan></text>
 <text class="SVGTextShape"><tspan class="TextParagraph" font-family="Liberation Sans, sans-serif" font-size="353px" font-weight="400"><tspan class="TextPosition" x="9082" y="7742"><tspan fill="rgb(0,0,0)" stroke="none" style="white-space: pre">3000</tspan></tspan></tspan></text>
 <text class="SVGTextShape"><tspan class="TextParagraph" font-family="Liberation Sans, sans-serif" font-size="353px" font-weight="400"><tspan class="TextPosition" x="10363" y="7742"><tspan fill="rgb(0,0,0)" stroke="none" style="white-space: pre">3500</tspan></tspan></tspan></text>
 <text class="SVGTextShape"><tspan class="TextParagraph" font-family="Liberation Sans, sans-serif" font-size="353px" font-weight="400"><tspan class="TextPosition" x="1319" y="7295"><tspan fill="rgb(0,0,0)" stroke="none" style="white-space: pre">0.00E+00</tspan></tspan></tspan></text>
 <text class="SVGTextShape"><tspan class="TextParagraph" font-family="Liberation Sans, sans-serif" font-size="353px" font-weight="400"><tspan class="TextPosition" x="1319" y="6755"><tspan fill="rgb(0,0,0)" stroke="none" style="white-space: pre">2.00E+00</tspan></tspan></tspan></text>
 <text class="SVGTextShape"><tspan class="TextParagraph" font-family="Liberation Sans, sans-serif" font-size="353px" font-weight="400"><tspan class="TextPosition" x="1319" y="6216"><tspan fill="rgb(0,0,0)" stroke="none" style="white-space: pre">4.00E+00</tspan></tspan></tspan></text>
 <text class="SVGTextShape"><tspan class="TextParagraph" font-family="Liberation Sans, sans-serif" font-size="353px" font-weight="400"><tspan class="TextPosition" x="1319" y="5676"><tspan fill="rgb(0,0,0)" stroke="none" style="white-space: pre">6.00E+00</tspan></tspan></tspan></text>
 <text class="SVGTextShape"><tspan class="TextParagraph" font-family="Liberation Sans, sans-serif" font-size="353px" font-weight="400"><tspan class="TextPosition" x="1319" y="5137"><tspan fill="rgb(0,0,0)" stroke="none" style="white-space: pre">8.00E+00</tspan></tspan></tspan></text>
 <text class="SVGTextShape"><tspan class="TextParagraph" font-family="Liberation Sans, sans-serif" font-size="353px" font-weight="400"><tspan class="TextPosition" x="1319" y="4597"><tspan fill="rgb(0,0,0)" stroke="none" style="white-space: pre">1.00E+01</tspan></tspan></tspan></text>
 <text class="SVGTextShape"><tspan class="TextParagraph" font-family="Liberation Sans, sans-serif" font-size="353px" font-weight="400"><tspan class="TextPosition" x="1319" y="4058"><tspan fill="rgb(0,0,0)" stroke="none" style="white-space: pre">1.20E+01</tspan></tspan></tspan></text>
 <text class="SVGTextShape"><tspan class="TextParagraph" font-family="Liberation Sans, sans-serif" font-size="353px" font-weight="400"><tspan class="TextPosition" x="1319" y="3518"><tspan fill="rgb(0,0,0)" stroke="none" style="white-space: pre">1.40E+01</tspan></tspan></tspan></text>
 <text class="SVGTextShape"><tspan class="TextParagraph" font-family="Liberation Sans, sans-serif" font-size="353px" font-weight="400"><tspan class="TextPosition" x="1319" y="2979"><tspan fill="rgb(0,0,0)" stroke="none" style="white-space: pre">1.60E+01</tspan></tspan></tspan></text>
 <text class="SVGTextShape"><tspan class="TextParagraph" font-family="Liberation Sans, sans-serif" font-size="353px" font-weight="400"><tspan class="TextPosition" x="1319" y="2440"><tspan fill="rgb(0,0,0)" stroke="none" style="white-space: pre">1.80E+01</tspan></tspan></tspan></text>
 <text class="SVGTextShape"><tspan class="TextParagraph" font-family="Liberation Sans, sans-serif" font-size="459px" font-weight="400"><tspan class="TextPosition" x="5928" y="837"><tspan fill="rgb(0,0,0)" stroke="none" style="white-space: pre">Tiempo de Ejecución</tspan></tspan></tspan></text>
 <text class="SVGTextShape"><tspan class="TextParagraph" font-family="Liberation Sans, sans-serif" font-size="388px" font-weight="400"><tspan class="TextPosition" x="6854" y="1746"><tspan fill="rgb(0,0,0)" stroke="none" style="white-space: pre">MyDGEMMT</tspan></tspan></tspan></text>
 <path fill="none" stroke="rgb(87,157,28)" stroke-width="80" stroke-linejoin="round" d="M 11541,4235 L 12341,4235"/>
 <path fill="rgb(87,157,28)" stroke="none" d="M 11835,4341 L 12046,4341 11941,4130 11835,4341 Z"/>
 <path fill="none" stroke="rgb(87,157,28)" stroke-linejoin="round" d="M 11835,4341 L 12046,4341 11941,4130 11835,4341 Z"/>
 <path fill="none" stroke="rgb(255,66,14)" stroke-width="80" stroke-linejoin="round" d="M 11541,4732 L 12341,4732"/>
 <path fill="rgb(255,66,14)" stroke="none" d="M 11835,4732 L 11941,4838 12046,4732 11941,4627 11835,4732 Z"/>
 <path fill="none" stroke="rgb(255,66,14)" stroke-linejoin="round" d="M 11835,4732 L 11941,4838 12046,4732 11941,4627 11835,4732 Z"/>
 <text class="SVGTextShape"><tspan class="TextParagraph" font-family="Liberation Sans, sans-serif" font-size="353px" font-weight="400"><tspan class="TextPosition" x="12441" y="4355"><tspan fill="rgb(0,0,0)" stroke="none" style="white-space: pre">ryzen_paralelo_icco0</tspan></tspan></tspan></text>
 <text class="SVGTextShape"><tspan class="TextParagraph" font-family="Liberation Sans, sans-serif" font-size="353px" font-weight="400"><tspan class="TextPosition" x="12441" y="4852"><tspan fill="rgb(0,0,0)" stroke="none" style="white-space: pre">ryzen_paralelo_icco3</tspan></tspan></tspan></text>
 <text class="SVGTextShape"><tspan class="TextParagraph" font-family="Liberation Sans, sans-serif" font-size="318px" font-weight="400"><tspan class="TextPosition" x="5855" y="8388"><tspan fill="rgb(0,0,0)" stroke="none" style="white-space: pre">Talla</tspan></tspan></tspan></text>
 <text class="SVGTextShape" transform="rotate(-90 824 5514)"><tspan class="TextParagraph" font-family="Liberation Sans, sans-serif" font-size="318px" font-weight="400"><tspan class="TextPosition" x="824" y="5514"><tspan fill="rgb(0,0,0)" stroke="none" style="white-space: pre">Tiempo</tspan></tspan></tspan></text>
</svg>