<?xml version="1.0" encoding="UTF-8"?>
<!DOCTYPE svg PUBLIC "-//W3C//DTD SVG 1.1//EN" "http://www.w3.org/Graphics/SVG/1.1/DTD/svg11.dtd">
<svg width="160mm" height="90mm" viewBox="0 0 16000 9000" version="1.1" xmlns="http://www.w3.org/2000/svg" xmlns:xlink="http://www.w3.org/1999/xlink" stroke-width="28.222" stroke-linejoin="round" xml:space="preserve">
 <path fill="rgb(255,255,255)" stroke="none" d="M 7992,8982 L -13,8982 -13,-13 15997,-13 15997,8982 7992,8982 Z"/>
 <path fill="none" stroke="rgb(179,179,179)" stroke-linejoin="round" d="M 7170,7175 L 3051,7175 3051,2321 11289,2321 11289,7175 7170,7175 Z"/>
 <path fill="none" stroke="rgb(179,179,179)" stroke-linejoin="round" d="M 11289,7174 L 3051,7174"/>
 <path fill="none" stroke="rgb(179,179,179)" stroke-linejoin="round" d="M 11289,6688 L 3051,6688"/>
 <path fill="none" stroke="rgb(179,179,179)" stroke-linejoin="round" d="M 11289,6203 L 3051,6203"/>
 <path fill="none" stroke="rgb(179,179,179)" stroke-linejoin="round" d="M 11289,5717 L 3051,5717"/>
 <path fill="none" stroke="rgb(179,179,179)" stroke-linejoin="round" d="M 11289,5232 L 3051,5232"/>
 <path fill="none" stroke="rgb(179,179,179)" stroke-linejoin="round" d="M 11289,4746 L 3051,4746"/>
 <path fill="none" stroke="rgb(179,179,179)" stroke-linejoin="round" d="M 11289,4262 L 3051,4262"/>
 <path fill="none" stroke="rgb(179,179,179)" stroke-linejoin="round" d="M 11289,3776 L 3051,3776"/>
 <path fill="none" stroke="rgb(179,179,179)" stroke-linejoin="round" d="M 11289,3291 L 3051,3291"/>
 <path fill="none" stroke="rgb(179,179,179)" stroke-linejoin="round" d="M 11289,2805 L 3051,2805"/>
 <path fill="none" stroke="rgb(179,179,179)" stroke-linejoin="round" d="M 11289,2320 L 3051,2320"/>
 <path fill="none" stroke="rgb(179,179,179)" stroke-linejoin="round" d="M 3051,7324 L 3051,7174"/>
 <path fill="none" stroke="rgb(179,179,179)" stroke-linejoin="round" d="M 3051,7324 L 3051,7174"/>
 <path fill="none" stroke="rgb(179,179,179)" stroke-linejoin="round" d="M 4424,7324 L 4424,7174"/>
 <path fill="none" stroke="rgb(179,179,179)" stroke-linejoin="round" d="M 4424,7324 L 4424,7174"/>
 <path fill="none" stroke="rgb(179,179,179)" stroke-linejoin="round" d="M 5797,7324 L 5797,7174"/>
 <path fill="none" stroke="rgb(179,179,179)" stroke-linejoin="round" d="M 5797,7324 L 5797,7174"/>
 <path fill="none" stroke="rgb(179,179,179)" stroke-linejoin="round" d="M 7170,7324 L 7170,7174"/>
 <path fill="none" stroke="rgb(179,179,179)" stroke-linejoin="round" d="M 7170,7324 L 7170,7174"/>
 <path fill="none" stroke="rgb(179,179,179)" stroke-linejoin="round" d="M 8542,7324 L 8542,7174"/>
 <path fill="none" stroke="rgb(179,179,179)" stroke-linejoin="round" d="M 8542,7324 L 8542,7174"/>
 <path fill="none" stroke="rgb(179,179,179)" stroke-linejoin="round" d="M 9915,7324 L 9915,7174"/>
 <path fill="none" stroke="rgb(179,179,179)" stroke-linejoin="round" d="M 9915,7324 L 9915,7174"/>
 <path fill="none" stroke="rgb(179,179,179)" stroke-linejoin="round" d="M 11289,7324 L 11289,7174"/>
 <path fill="none" stroke="rgb(179,179,179)" stroke-linejoin="round" d="M 11289,7324 L 11289,7174"/>
 <path fill="none" stroke="rgb(179,179,179)" stroke-linejoin="round" d="M 3051,7174 L 11289,7174"/>
 <path fill="none" stroke="rgb(179,179,179)" stroke-linejoin="round" d="M 2901,7174 L 3051,7174"/>
 <path fill="none" stroke="rgb(179,179,179)" stroke-linejoin="round" d="M 2901,7174 L 3051,7174"/>
 <path fill="none" stroke="rgb(179,179,179)" stroke-linejoin="round" d="M 2901,6688 L 3051,6688"/>
 <path fill="none" stroke="rgb(179,179,179)" stroke-linejoin="round" d="M 2901,6688 L 3051,6688"/>
 <path fill="none" stroke="rgb(179,179,179)" stroke-linejoin="round" d="M 2901,6203 L 3051,6203"/>
 <path fill="none" stroke="rgb(179,179,179)" stroke-linejoin="round" d="M 2901,6203 L 3051,6203"/>
 <path fill="none" stroke="rgb(179,179,179)" stroke-linejoin="round" d="M 2901,5717 L 3051,5717"/>
 <path fill="none" stroke="rgb(179,179,179)" stroke-linejoin="round" d="M 2901,5717 L 3051,5717"/>
 <path fill="none" stroke="rgb(179,179,179)" stroke-linejoin="round" d="M 2901,5232 L 3051,5232"/>
 <path fill="none" stroke="rgb(179,179,179)" stroke-linejoin="round" d="M 2901,5232 L 3051,5232"/>
 <path fill="none" stroke="rgb(179,179,179)" stroke-linejoin="round" d="M 2901,4746 L 3051,4746"/>
 <path fill="none" stroke="rgb(179,179,179)" stroke-linejoin="round" d="M 2901,4746 L 3051,4746"/>
 <path fill="none" stroke="rgb(179,179,179)" stroke-linejoin="round" d="M 2901,4262 L 3051,4262"/>
 <path fill="none" stroke="rgb(179,179,179)" stroke-linejoin="round" d="M 2901,4262 L 3051,4262"/>
 <path fill="none" stroke="rgb(179,179,179)" stroke-linejoin="round" d="M 2901,3776 L 3051,3776"/>
 <path fill="none" stroke="rgb(179,179,179)" stroke-linejoin="round" d="M 2901,3776 L 3051,3776"/>
 <path fill="none" stroke="rgb(179,179,179)" stroke-linejoin="round" d="M 2901,3291 L 3051,3291"/>
 <path fill="none" stroke="rgb(179,179,179)" stroke-linejoin="round" d="M 2901,3291 L 3051,3291"/>
 <path fill="none" stroke="rgb(179,179,179)" stroke-linejoin="round" d="M 2901,2805 L 3051,2805"/>
 <path fill="none" stroke="rgb(179,179,179)" stroke-linejoin="round" d="M 2901,2805 L 3051,2805"/>
 <path fill="none" stroke="rgb(179,179,179)" stroke-linejoin="round" d="M 2901,2320 L 3051,2320"/>
 <path fill="none" stroke="rgb(179,179,179)" stroke-linejoin="round" d="M 2901,2320 L 3051,2320"/>
 <path fill="none" stroke="rgb(179,179,179)" stroke-linejoin="round" d="M 3051,7174 L 3051,2320"/>
 <path fill="none" stroke="rgb(131,202,255)" stroke-width="80" stroke-linejoin="round" d="M 4424,7153 L 7170,7004 9915,6589"/>
 <path fill="rgb(131,202,255)" stroke="none" d="M 4299,7153 L 4549,7278 4549,7028 4299,7153 Z"/>
 <path fill="none" stroke="rgb(131,202,255)" stroke-linejoin="round" d="M 4299,7153 L 4549,7278 4549,7028 4299,7153 Z"/>
 <path fill="rgb(131,202,255)" stroke="none" d="M 7045,7004 L 7295,7129 7295,6879 7045,7004 Z"/>
 <path fill="none" stroke="rgb(131,202,255)" stroke-linejoin="round" d="M 7045,7004 L 7295,7129 7295,6879 7045,7004 Z"/>
 <path fill="rgb(131,202,255)" stroke="none" d="M 9790,6589 L 10040,6714 10040,6464 9790,6589 Z"/>
 <path fill="none" stroke="rgb(131,202,255)" stroke-linejoin="round" d="M 9790,6589 L 10040,6714 10040,6464 9790,6589 Z"/>
 <path fill="none" stroke="rgb(126,0,33)" stroke-width="80" stroke-linejoin="round" d="M 4424,7009 L 7170,5826 9915,2636"/>
 <path fill="rgb(126,0,33)" stroke="none" d="M 4299,6884 L 4299,7134 4549,7009 4299,6884 Z"/>
 <path fill="none" stroke="rgb(126,0,33)" stroke-linejoin="round" d="M 4299,6884 L 4299,7134 4549,7009 4299,6884 Z"/>
 <path fill="rgb(126,0,33)" stroke="none" d="M 7045,5701 L 7045,5951 7295,5826 7045,5701 Z"/>
 <path fill="none" stroke="rgb(126,0,33)" stroke-linejoin="round" d="M 7045,5701 L 7045,5951 7295,5826 7045,5701 Z"/>
 <path fill="rgb(126,0,33)" stroke="none" d="M 9790,2511 L 9790,2761 10040,2636 9790,2511 Z"/>
 <path fill="none" stroke="rgb(126,0,33)" stroke-linejoin="round" d="M 9790,2511 L 9790,2761 10040,2636 9790,2511 Z"/>
 <path fill="none" stroke="rgb(87,157,28)" stroke-width="80" stroke-linejoin="round" d="M 4424,7165 L 7170,7107 9915,6944"/>
 <path fill="rgb(87,157,28)" stroke="none" d="M 4299,7290 L 4549,7290 4424,7040 4299,7290 Z"/>
 <path fill="none" stroke="rgb(87,157,28)" stroke-linejoin="round" d="M 4299,7290 L 4549,7290 4424,7040 4299,7290 Z"/>
 <path fill="rgb(87,157,28)" stroke="none" d="M 7045,7232 L 7295,7232 7170,6982 7045,7232 Z"/>
 <path fill="none" stroke="rgb(87,157,28)" stroke-linejoin="round" d="M 7045,7232 L 7295,7232 7170,6982 7045,7232 Z"/>
 <path fill="rgb(87,157,28)" stroke="none" d="M 9790,7069 L 10040,7069 9915,6819 9790,7069 Z"/>
 <path fill="none" stroke="rgb(87,157,28)" stroke-linejoin="round" d="M 9790,7069 L 10040,7069 9915,6819 9790,7069 Z"/>
 <path fill="none" stroke="rgb(255,211,32)" stroke-width="80" stroke-linejoin="round" d="M 4424,7112 L 7170,6673 9915,5475"/>
 <path fill="rgb(255,211,32)" stroke="none" d="M 4299,6987 L 4424,7237 4549,6987 4299,6987 Z"/>
 <path fill="none" stroke="rgb(255,211,32)" stroke-linejoin="round" d="M 4299,6987 L 4424,7237 4549,6987 4299,6987 Z"/>
 <path fill="rgb(255,211,32)" stroke="none" d="M 7045,6548 L 7170,6798 7295,6548 7045,6548 Z"/>
 <path fill="none" stroke="rgb(255,211,32)" stroke-linejoin="round" d="M 7045,6548 L 7170,6798 7295,6548 7045,6548 Z"/>
 <path fill="rgb(255,211,32)" stroke="none" d="M 9790,5350 L 9915,5600 10040,5350 9790,5350 Z"/>
 <path fill="none" stroke="rgb(255,211,32)" stroke-linejoin="round" d="M 9790,5350 L 9915,5600 10040,5350 9790,5350 Z"/>
 <path fill="none" stroke="rgb(255,66,14)" stroke-width="80" stroke-linejoin="round" d="M 4424,7123 L 7170,6553 9915,5878"/>
 <path fill="rgb(255,66,14)" stroke="none" d="M 4299,7123 L 4424,7248 4549,7123 4424,6998 4299,7123 Z"/>
 <path fill="none" stroke="rgb(255,66,14)" stroke-linejoin="round" d="M 4299,7123 L 4424,7248 4549,7123 4424,6998 4299,7123 Z"/>
 <path fill="rgb(255,66,14)" stroke="none" d="M 7045,6553 L 7170,6678 7295,6553 7170,6428 7045,6553 Z"/>
 <path fill="none" stroke="rgb(255,66,14)" stroke-linejoin="round" d="M 7045,6553 L 7170,6678 7295,6553 7170,6428 7045,6553 Z"/>
 <path fill="rgb(255,66,14)" stroke="none" d="M 9790,5878 L 9915,6003 10040,5878 9915,5753 9790,5878 Z"/>
 <path fill="none" stroke="rgb(255,66,14)" stroke-linejoin="round" d="M 9790,5878 L 9915,6003 10040,5878 9915,5753 9790,5878 Z"/>
 <path fill="none" stroke="rgb(0,69,134)" stroke-width="80" stroke-linejoin="round" d="M 4424,7078 L 7170,6423 9915,4645"/>
 <path fill="rgb(0,69,134)" stroke="none" d="M 4299,6953 L 4299,7203 4549,7203 4549,6953 4299,6953 Z"/>
 <path fill="none" stroke="rgb(0,69,134)" stroke-linejoin="round" d="M 4299,6953 L 4299,7203 4549,7203 4549,6953 4299,6953 Z"/>
 <path fill="rgb(0,69,134)" stroke="none" d="M 7045,6298 L 7045,6548 7295,6548 7295,6298 7045,6298 Z"/>
 <path fill="none" stroke="rgb(0,69,134)" stroke-linejoin="round" d="M 7045,6298 L 7045,6548 7295,6548 7295,6298 7045,6298 Z"/>
 <path fill="rgb(0,69,134)" stroke="none" d="M 9790,4520 L 9790,4770 10040,4770 10040,4520 9790,4520 Z"/>
 <path fill="none" stroke="rgb(0,69,134)" stroke-linejoin="round" d="M 9790,4520 L 9790,4770 10040,4770 10040,4520 9790,4520 Z"/>
 <text class="SVGTextShape"><tspan class="TextParagraph" font-family="Liberation Sans, sans-serif" font-size="353px" font-weight="400"><tspan class="TextPosition" x="2773" y="7742"><tspan fill="rgb(0,0,0)" stroke="none" style="white-space: pre">500</tspan></tspan></tspan></text>
 <text class="SVGTextShape"><tspan class="TextParagraph" font-family="Liberation Sans, sans-serif" font-size="353px" font-weight="400"><tspan class="TextPosition" x="4053" y="7742"><tspan fill="rgb(0,0,0)" stroke="none" style="white-space: pre">1000</tspan></tspan></tspan></text>
 <text class="SVGTextShape"><tspan class="TextParagraph" font-family="Liberation Sans, sans-serif" font-size="353px" font-weight="400"><tspan class="TextPosition" x="5426" y="7742"><tspan fill="rgb(0,0,0)" stroke="none" style="white-space: pre">1500</tspan></tspan></tspan></text>
 <text class="SVGTextShape"><tspan class="TextParagraph" font-family="Liberation Sans, sans-serif" font-size="353px" font-weight="400"><tspan class="TextPosition" x="6799" y="7742"><tspan fill="rgb(0,0,0)" stroke="none" style="white-space: pre">2000</tspan></tspan></tspan></text>
 <text class="SVGTextShape"><tspan class="TextParagraph" font-family="Liberation Sans, sans-serif" font-size="353px" font-weight="400"><tspan class="TextPosition" x="8172" y="7742"><tspan fill="rgb(0,0,0)" stroke="none" style="white-space: pre">2500</tspan></tspan></tspan></text>
 <text class="SVGTextShape"><tspan class="TextParagraph" font-family="Liberation Sans, sans-serif" font-size="353px" font-weight="400"><tspan class="TextPosition" x="9545" y="7742"><tspan fill="rgb(0,0,0)" stroke="none" style="white-space: pre">3000</tspan></tspan></tspan></text>
 <text class="SVGTextShape"><tspan class="TextParagraph" font-family="Liberation Sans, sans-serif" font-size="353px" font-weight="400"><tspan class="TextPosition" x="10919" y="7742"><tspan fill="rgb(0,0,0)" stroke="none" style="white-space: pre">3500</tspan></tspan></tspan></text>
 <text class="SVGTextShape"><tspan class="TextParagraph" font-family="Liberation Sans, sans-serif" font-size="353px" font-weight="400"><tspan class="TextPosition" x="1319" y="7295"><tspan fill="rgb(0,0,0)" stroke="none" style="white-space: pre">0.00E+00</tspan></tspan></tspan></text>
 <text class="SVGTextShape"><tspan class="TextParagraph" font-family="Liberation Sans, sans-serif" font-size="353px" font-weight="400"><tspan class="TextPosition" x="1319" y="6809"><tspan fill="rgb(0,0,0)" stroke="none" style="white-space: pre">2.00E+01</tspan></tspan></tspan></text>
 <text class="SVGTextShape"><tspan class="TextParagraph" font-family="Liberation Sans, sans-serif" font-size="353px" font-weight="400"><tspan class="TextPosition" x="1319" y="6324"><tspan fill="rgb(0,0,0)" stroke="none" style="white-space: pre">4.00E+01</tspan></tspan></tspan></text>
 <text class="SVGTextShape"><tspan class="TextParagraph" font-family="Liberation Sans, sans-serif" font-size="353px" font-weight="400"><tspan class="TextPosition" x="1319" y="5838"><tspan fill="rgb(0,0,0)" stroke="none" style="white-space: pre">6.00E+01</tspan></tspan></tspan></text>
 <text class="SVGTextShape"><tspan class="TextParagraph" font-family="Liberation Sans, sans-serif" font-size="353px" font-weight="400"><tspan class="TextPosition" x="1319" y="5353"><tspan fill="rgb(0,0,0)" stroke="none" style="white-space: pre">8.00E+01</tspan></tspan></tspan></text>
 <text class="SVGTextShape"><tspan class="TextParagraph" font-family="Liberation Sans, sans-serif" font-size="353px" font-weight="400"><tspan class="TextPosition" x="1319" y="4867"><tspan fill="rgb(0,0,0)" stroke="none" style="white-space: pre">1.00E+02</tspan></tspan></tspan></text>
 <text class="SVGTextShape"><tspan class="TextParagraph" font-family="Liberation Sans, sans-serif" font-size="353px" font-weight="400"><tspan class="TextPosition" x="1319" y="4382"><tspan fill="rgb(0,0,0)" stroke="none" style="white-space: pre">1.20E+02</tspan></tspan></tspan></text>
 <text class="SVGTextShape"><tspan class="TextParagraph" font-family="Liberation Sans, sans-serif" font-size="353px" font-weight="400"><tspan class="TextPosition" x="1319" y="3896"><tspan fill="rgb(0,0,0)" stroke="none" style="white-space: pre">1.40E+02</tspan></tspan></tspan></text>
 <text class="SVGTextShape"><tspan class="TextParagraph" font-family="Liberation Sans, sans-serif" font-size="353px" font-weight="400"><tspan class="TextPosition" x="1319" y="3411"><tspan fill="rgb(0,0,0)" stroke="none" style="white-space: pre">1.60E+02</tspan></tspan></tspan></text>
 <text class="SVGTextShape"><tspan class="TextParagraph" font-family="Liberation Sans, sans-serif" font-size="353px" font-weight="400"><tspan class="TextPosition" x="1319" y="2925"><tspan fill="rgb(0,0,0)" stroke="none" style="white-space: pre">1.80E+02</tspan></tspan></tspan></text>
 <text class="SVGTextShape"><tspan class="TextParagraph" font-family="Liberation Sans, sans-serif" font-size="353px" font-weight="400"><tspan class="TextPosition" x="1319" y="2440"><tspan fill="rgb(0,0,0)" stroke="none" style="white-space: pre">2.00E+02</tspan></tspan></tspan></text>
 <text class="SVGTextShape"><tspan class="TextParagraph" font-family="Liberation Sans, sans-serif" font-size="459px" font-weight="400"><tspan class="TextPosition" x="5928" y="837"><tspan fill="rgb(0,0,0)" stroke="none" style="white-space: pre">Tiempo de Ejecución</tspan></tspan></tspan></text>
 <text class="SVGTextShape"><tspan class="TextParagraph" font-family="Liberation Sans, sans-serif" font-size="388px" font-weight="400"><tspan class="TextPosition" x="6259" y="1746"><tspan fill="rgb(0,0,0)" stroke="none" style="white-space: pre">MyDGEMM (IccO0)</tspan></tspan></tspan></text>
 <path fill="none" stroke="rgb(0,69,134)" stroke-width="80" stroke-linejoin="round" d="M 12097,3239 L 12897,3239"/>
 <path fill="rgb(0,69,134)" stroke="none" d="M 12391,3134 L 12391,3345 12602,3345 12602,3134 12391,3134 Z"/>
 <path fill="none" stroke="rgb(0,69,134)" stroke-linejoin="round" d="M 12391,3134 L 12391,3345 12602,3345 12602,3134 12391,3134 Z"/>
 <path fill="none" stroke="rgb(255,66,14)" stroke-width="80" stroke-linejoin="round" d="M 12097,3737 L 12897,3737"/>
 <path fill="rgb(255,66,14)" stroke="none" d="M 12391,3737 L 12497,3843 12602,3737 12497,3632 12391,3737 Z"/>
 <path fill="none" stroke="rgb(255,66,14)" stroke-linejoin="round" d="M 12391,3737 L 12497,3843 12602,3737 12497,3632 12391,3737 Z"/>
 <path fill="none" stroke="rgb(255,211,32)" stroke-width="80" stroke-linejoin="round" d="M 12097,4235 L 12897,4235"/>
 <path fill="rgb(255,211,32)" stroke="none" d="M 12391,4130 L 12497,4341 12602,4130 12391,4130 Z"/>
 <path fill="none" stroke="rgb(255,211,32)" stroke-linejoin="round" d="M 12391,4130 L 12497,4341 12602,4130 12391,4130 Z"/>
 <path fill="none" stroke="rgb(87,157,28)" stroke-width="80" stroke-linejoin="round" d="M 12097,4732 L 12897,4732"/>
 <path fill="rgb(87,157,28)" stroke="none" d="M 12391,4838 L 12602,4838 12497,4627 12391,4838 Z"/>
 <path fill="none" stroke="rgb(87,157,28)" stroke-linejoin="round" d="M 12391,4838 L 12602,4838 12497,4627 12391,4838 Z"/>
 <path fill="none" stroke="rgb(126,0,33)" stroke-width="80" stroke-linejoin="round" d="M 12097,5230 L 12897,5230"/>
 <path fill="rgb(126,0,33)" stroke="none" d="M 12391,5125 L 12391,5336 12602,5230 12391,5125 Z"/>
 <path fill="none" stroke="rgb(126,0,33)" stroke-linejoin="round" d="M 12391,5125 L 12391,5336 12602,5230 12391,5125 Z"/>
 <path fill="none" stroke="rgb(131,202,255)" stroke-width="80" stroke-linejoin="round" d="M 12097,5728 L 12897,5728"/>
 <path fill="rgb(131,202,255)" stroke="none" d="M 12391,5728 L 12602,5834 12602,5623 12391,5728 Z"/>
 <path fill="none" stroke="rgb(131,202,255)" stroke-linejoin="round" d="M 12391,5728 L 12602,5834 12602,5623 12391,5728 Z"/>
 <text class="SVGTextShape"><tspan class="TextParagraph" font-family="Liberation Sans, sans-serif" font-size="353px" font-weight="400"><tspan class="TextPosition" x="12997" y="3359"><tspan fill="rgb(0,0,0)" stroke="none" style="white-space: pre">i3_secuencial</tspan></tspan></tspan></text>
 <text class="SVGTextShape"><tspan class="TextParagraph" font-family="Liberation Sans, sans-serif" font-size="353px" font-weight="400"><tspan class="TextPosition" x="12997" y="3857"><tspan fill="rgb(0,0,0)" stroke="none" style="white-space: pre">i3_paralelo</tspan></tspan></tspan></text>
 <text class="SVGTextShape"><tspan class="TextParagraph" font-family="Liberation Sans, sans-serif" font-size="353px" font-weight="400"><tspan class="TextPosition" x="12997" y="4355"><tspan fill="rgb(0,0,0)" stroke="none" style="white-space: pre">ryzen_secuencial</tspan></tspan></tspan></text>
 <text class="SVGTextShape"><tspan class="TextParagraph" font-family="Liberation Sans, sans-serif" font-size="353px" font-weight="400"><tspan class="TextPosition" x="12997" y="4852"><tspan fill="rgb(0,0,0)" stroke="none" style="white-space: pre">ryzen_paralelo</tspan></tspan></tspan></text>
 <text class="SVGTextShape"><tspan class="TextParagraph" font-family="Liberation Sans, sans-serif" font-size="353px" font-weight="400"><tspan class="TextPosition" x="12997" y="5350"><tspan fill="rgb(0,0,0)" stroke="none" style="white-space: pre">xeon_secuencial</tspan></tspan></tspan></text>
 <text class="SVGTextShape"><tspan class="TextParagraph" font-family="Liberation Sans, sans-serif" font-size="353px" font-weight="400"><tspan class="TextPosition" x="12997" y="5848"><tspan fill="rgb(0,0,0)" stroke="none" style="white-space: pre">xeon_paralelo</tspan></tspan></tspan></text>
 <text class="SVGTextShape"><tspan class="TextParagraph" font-family="Liberation Sans, sans-serif" font-size="318px" font-weight="400"><tspan class="TextPosition" x="6133" y="8388"><tspan fill="rgb(0,0,0)" stroke="none" style="white-space: pre">Talla</tspan></tspan></tspan></text>
 <text class="SVGTextShape" transform="rotate(-90 824 5514)"><tspan class="TextParagraph" font-family="Liberation Sans, sans-serif" font-size="318px" font-weight="400"><tspan class="TextPosition" x="824" y="5514"><tspan fill="rgb(0,0,0)" stroke="none" style="white-space: pre">Tiempo</tspan></tspan></tspan></text>
</svg>