<?xml version="1.0" encoding="UTF-8"?>
<!DOCTYPE svg PUBLIC "-//W3C//DTD SVG 1.1//EN" "http://www.w3.org/Graphics/SVG/1.1/DTD/svg11.dtd">
<svg width="160mm" height="90mm" viewBox="0 0 16000 9000" version="1.1" xmlns="http://www.w3.org/2000/svg" xmlns:xlink="http://www.w3.org/1999/xlink" stroke-width="28.222" stroke-linejoin="round" xml:space="preserve">
 <path fill="rgb(255,255,255)" stroke="none" d="M 7992,8982 L -13,8982 -13,-13 15997,-13 15997,8982 7992,8982 Z"/>
 <path fill="none" stroke="rgb(179,179,179)" stroke-linejoin="round" d="M 7170,7175 L 3051,7175 3051,2321 11289,2321 11289,7175 7170,7175 Z"/>
 <path fill="none" stroke="rgb(179,179,179)" stroke-linejoin="round" d="M 11289,7174 L 3051,7174"/>
 <path fill="none" stroke="rgb(179,179,179)" stroke-linejoin="round" d="M 11289,6480 L 3051,6480"/>
 <path fill="none" stroke="rgb(179,179,179)" stroke-linejoin="round" d="M 11289,5786 L 3051,5786"/>
 <path fill="none" stroke="rgb(179,179,179)" stroke-linejoin="round" d="M 11289,5093 L 3051,5093"/>
 <path fill="none" stroke="rgb(179,179,179)" stroke-linejoin="round" d="M 11289,4400 L 3051,4400"/>
 <path fill="none" stroke="rgb(179,179,179)" stroke-linejoin="round" d="M 11289,3707 L 3051,3707"/>
 <path fill="none" stroke="rgb(179,179,179)" stroke-linejoin="round" d="M 11289,3013 L 3051,3013"/>
 <path fill="none" stroke="rgb(179,179,179)" stroke-linejoin="round" d="M 11289,2320 L 3051,2320"/>
 <path fill="none" stroke="rgb(179,179,179)" stroke-linejoin="round" d="M 3051,7324 L 3051,7174"/>
 <path fill="none" stroke="rgb(179,179,179)" stroke-linejoin="round" d="M 3051,7324 L 3051,7174"/>
 <path fill="none" stroke="rgb(179,179,179)" stroke-linejoin="round" d="M 4424,7324 L 4424,7174"/>
 <path fill="none" stroke="rgb(179,179,179)" stroke-linejoin="round" d="M 4424,7324 L 4424,7174"/>
 <path fill="none" stroke="rgb(179,179,179)" stroke-linejoin="round" d="M 5797,7324 L 5797,7174"/>
 <path fill="none" stroke="rgb(179,179,179)" stroke-linejoin="round" d="M 5797,7324 L 5797,7174"/>
 <path fill="none" stroke="rgb(179,179,179)" stroke-linejoin="round" d="M 7170,7324 L 7170,7174"/>
 <path fill="none" stroke="rgb(179,179,179)" stroke-linejoin="round" d="M 7170,7324 L 7170,7174"/>
 <path fill="none" stroke="rgb(179,179,179)" stroke-linejoin="round" d="M 8542,7324 L 8542,7174"/>
 <path fill="none" stroke="rgb(179,179,179)" stroke-linejoin="round" d="M 8542,7324 L 8542,7174"/>
 <path fill="none" stroke="rgb(179,179,179)" stroke-linejoin="round" d="M 9915,7324 L 9915,7174"/>
 <path fill="none" stroke="rgb(179,179,179)" stroke-linejoin="round" d="M 9915,7324 L 9915,7174"/>
 <path fill="none" stroke="rgb(179,179,179)" stroke-linejoin="round" d="M 11289,7324 L 11289,7174"/>
 <path fill="none" stroke="rgb(179,179,179)" stroke-linejoin="round" d="M 11289,7324 L 11289,7174"/>
 <path fill="none" stroke="rgb(179,179,179)" stroke-linejoin="round" d="M 3051,7174 L 11289,7174"/>
 <path fill="none" stroke="rgb(179,179,179)" stroke-linejoin="round" d="M 2901,7174 L 3051,7174"/>
 <path fill="none" stroke="rgb(179,179,179)" stroke-linejoin="round" d="M 2901,7174 L 3051,7174"/>
 <path fill="none" stroke="rgb(179,179,179)" stroke-linejoin="round" d="M 2901,6480 L 3051,6480"/>
 <path fill="none" stroke="rgb(179,179,179)" stroke-linejoin="round" d="M 2901,6480 L 3051,6480"/>
 <path fill="none" stroke="rgb(179,179,179)" stroke-linejoin="round" d="M 2901,5786 L 3051,5786"/>
 <path fill="none" stroke="rgb(179,179,179)" stroke-linejoin="round" d="M 2901,5786 L 3051,5786"/>
 <path fill="none" stroke="rgb(179,179,179)" stroke-linejoin="round" d="M 2901,5093 L 3051,5093"/>
 <path fill="none" stroke="rgb(179,179,179)" stroke-linejoin="round" d="M 2901,5093 L 3051,5093"/>
 <path fill="none" stroke="rgb(179,179,179)" stroke-linejoin="round" d="M 2901,4400 L 3051,4400"/>
 <path fill="none" stroke="rgb(179,179,179)" stroke-linejoin="round" d="M 2901,4400 L 3051,4400"/>
 <path fill="none" stroke="rgb(179,179,179)" stroke-linejoin="round" d="M 2901,3707 L 3051,3707"/>
 <path fill="none" stroke="rgb(179,179,179)" stroke-linejoin="round" d="M 2901,3707 L 3051,3707"/>
 <path fill="none" stroke="rgb(179,179,179)" stroke-linejoin="round" d="M 2901,3013 L 3051,3013"/>
 <path fill="none" stroke="rgb(179,179,179)" stroke-linejoin="round" d="M 2901,3013 L 3051,3013"/>
 <path fill="none" stroke="rgb(179,179,179)" stroke-linejoin="round" d="M 2901,2320 L 3051,2320"/>
 <path fill="none" stroke="rgb(179,179,179)" stroke-linejoin="round" d="M 2901,2320 L 3051,2320"/>
 <path fill="none" stroke="rgb(179,179,179)" stroke-linejoin="round" d="M 3051,7174 L 3051,2320"/>
 <path fill="none" stroke="rgb(131,202,255)" stroke-width="80" stroke-linejoin="round" d="M 4424,7159 L 7170,6813 9915,5989"/>
 <path fill="rgb(131,202,255)" stroke="none" d="M 4299,7159 L 4549,7284 4549,7034 4299,7159 Z"/>
 <path fill="none" stroke="rgb(131,202,255)" stroke-linejoin="round" d="M 4299,7159 L 4549,7284 4549,7034 4299,7159 Z"/>
 <path fill="rgb(131,202,255)" stroke="none" d="M 7045,6813 L 7295,6938 7295,6688 7045,6813 Z"/>
 <path fill="none" stroke="rgb(131,202,255)" stroke-linejoin="round" d="M 7045,6813 L 7295,6938 7295,6688 7045,6813 Z"/>
 <path fill="rgb(131,202,255)" stroke="none" d="M 9790,5989 L 10040,6114 10040,5864 9790,5989 Z"/>
 <path fill="none" stroke="rgb(131,202,255)" stroke-linejoin="round" d="M 9790,5989 L 10040,6114 10040,5864 9790,5989 Z"/>
 <path fill="none" stroke="rgb(126,0,33)" stroke-width="80" stroke-linejoin="round" d="M 4424,7082 L 7170,6118 9915,2833"/>
 <path fill="rgb(126,0,33)" stroke="none" d="M 4299,6957 L 4299,7207 4549,7082 4299,6957 Z"/>
 <path fill="none" stroke="rgb(126,0,33)" stroke-linejoin="round" d="M 4299,6957 L 4299,7207 4549,7082 4299,6957 Z"/>
 <path fill="rgb(126,0,33)" stroke="none" d="M 7045,5993 L 7045,6243 7295,6118 7045,5993 Z"/>
 <path fill="none" stroke="rgb(126,0,33)" stroke-linejoin="round" d="M 7045,5993 L 7045,6243 7295,6118 7045,5993 Z"/>
 <path fill="rgb(126,0,33)" stroke="none" d="M 9790,2708 L 9790,2958 10040,2833 9790,2708 Z"/>
 <path fill="none" stroke="rgb(126,0,33)" stroke-linejoin="round" d="M 9790,2708 L 9790,2958 10040,2833 9790,2708 Z"/>
 <path fill="none" stroke="rgb(87,157,28)" stroke-width="80" stroke-linejoin="round" d="M 4424,7170 L 7170,7070 9915,6795"/>
 <path fill="rgb(87,157,28)" stroke="none" d="M 4299,7295 L 4549,7295 4424,7045 4299,7295 Z"/>
 <path fill="none" stroke="rgb(87,157,28)" stroke-linejoin="round" d="M 4299,7295 L 4549,7295 4424,7045 4299,7295 Z"/>
 <path fill="rgb(87,157,28)" stroke="none" d="M 7045,7195 L 7295,7195 7170,6945 7045,7195 Z"/>
 <path fill="none" stroke="rgb(87,157,28)" stroke-linejoin="round" d="M 7045,7195 L 7295,7195 7170,6945 7045,7195 Z"/>
 <path fill="rgb(87,157,28)" stroke="none" d="M 9790,6920 L 10040,6920 9915,6670 9790,6920 Z"/>
 <path fill="none" stroke="rgb(87,157,28)" stroke-linejoin="round" d="M 9790,6920 L 10040,6920 9915,6670 9790,6920 Z"/>
 <path fill="none" stroke="rgb(255,211,32)" stroke-width="80" stroke-linejoin="round" d="M 4424,7154 L 7170,6770 9915,5841"/>
 <path fill="rgb(255,211,32)" stroke="none" d="M 4299,7029 L 4424,7279 4549,7029 4299,7029 Z"/>
 <path fill="none" stroke="rgb(255,211,32)" stroke-linejoin="round" d="M 4299,7029 L 4424,7279 4549,7029 4299,7029 Z"/>
 <path fill="rgb(255,211,32)" stroke="none" d="M 7045,6645 L 7170,6895 7295,6645 7045,6645 Z"/>
 <path fill="none" stroke="rgb(255,211,32)" stroke-linejoin="round" d="M 7045,6645 L 7170,6895 7295,6645 7045,6645 Z"/>
 <path fill="rgb(255,211,32)" stroke="none" d="M 9790,5716 L 9915,5966 10040,5716 9790,5716 Z"/>
 <path fill="none" stroke="rgb(255,211,32)" stroke-linejoin="round" d="M 9790,5716 L 9915,5966 10040,5716 9790,5716 Z"/>
 <path fill="none" stroke="rgb(255,66,14)" stroke-width="80" stroke-linejoin="round" d="M 4424,7109 L 7170,6731 9915,5527"/>
 <path fill="rgb(255,66,14)" stroke="none" d="M 4299,7109 L 4424,7234 4549,7109 4424,6984 4299,7109 Z"/>
 <path fill="none" stroke="rgb(255,66,14)" stroke-linejoin="round" d="M 4299,7109 L 4424,7234 4549,7109 4424,6984 4299,7109 Z"/>
 <path fill="rgb(255,66,14)" stroke="none" d="M 7045,6731 L 7170,6856 7295,6731 7170,6606 7045,6731 Z"/>
 <path fill="none" stroke="rgb(255,66,14)" stroke-linejoin="round" d="M 7045,6731 L 7170,6856 7295,6731 7170,6606 7045,6731 Z"/>
 <path fill="rgb(255,66,14)" stroke="none" d="M 9790,5527 L 9915,5652 10040,5527 9915,5402 9790,5527 Z"/>
 <path fill="none" stroke="rgb(255,66,14)" stroke-linejoin="round" d="M 9790,5527 L 9915,5652 10040,5527 9915,5402 9790,5527 Z"/>
 <path fill="none" stroke="rgb(0,69,134)" stroke-width="80" stroke-linejoin="round" d="M 4424,7090 L 7170,6552 9915,4954"/>
 <path fill="rgb(0,69,134)" stroke="none" d="M 4299,6965 L 4299,7215 4549,7215 4549,6965 4299,6965 Z"/>
 <path fill="none" stroke="rgb(0,69,134)" stroke-linejoin="round" d="M 4299,6965 L 4299,7215 4549,7215 4549,6965 4299,6965 Z"/>
 <path fill="rgb(0,69,134)" stroke="none" d="M 7045,6427 L 7045,6677 7295,6677 7295,6427 7045,6427 Z"/>
 <path fill="none" stroke="rgb(0,69,134)" stroke-linejoin="round" d="M 7045,6427 L 7045,6677 7295,6677 7295,6427 7045,6427 Z"/>
 <path fill="rgb(0,69,134)" stroke="none" d="M 9790,4829 L 9790,5079 10040,5079 10040,4829 9790,4829 Z"/>
 <path fill="none" stroke="rgb(0,69,134)" stroke-linejoin="round" d="M 9790,4829 L 9790,5079 10040,5079 10040,4829 9790,4829 Z"/>
 <text class="SVGTextShape"><tspan class="TextParagraph" font-family="Liberation Sans, sans-serif" font-size="353px" font-weight="400"><tspan class="TextPosition" x="2773" y="7742"><tspan fill="rgb(0,0,0)" stroke="none" style="white-space: pre">500</tspan></tspan></tspan></text>
 <text class="SVGTextShape"><tspan class="TextParagraph" font-family="Liberation Sans, sans-serif" font-size="353px" font-weight="400"><tspan class="TextPosition" x="4053" y="7742"><tspan fill="rgb(0,0,0)" stroke="none" style="white-space: pre">1000</tspan></tspan></tspan></text>
 <text class="SVGTextShape"><tspan class="TextParagraph" font-family="Liberation Sans, sans-serif" font-size="353px" font-weight="400"><tspan class="TextPosition" x="5426" y="7742"><tspan fill="rgb(0,0,0)" stroke="none" style="white-space: pre">1500</tspan></tspan></tspan></text>
 <text class="SVGTextShape"><tspan class="TextParagraph" font-family="Liberation Sans, sans-serif" font-size="353px" font-weight="400"><tspan class="TextPosition" x="6799" y="7742"><tspan fill="rgb(0,0,0)" stroke="none" style="white-space: pre">2000</tspan></tspan></tspan></text>
 <text class="SVGTextShape"><tspan class="TextParagraph" font-family="Liberation Sans, sans-serif" font-size="353px" font-weight="400"><tspan class="TextPosition" x="8172" y="7742"><tspan fill="rgb(0,0,0)" stroke="none" style="white-space: pre">2500</tspan></tspan></tspan></text>
 <text class="SVGTextShape"><tspan class="TextParagraph" font-family="Liberation Sans, sans-serif" font-size="353px" font-weight="400"><tspan class="TextPosition" x="9545" y="7742"><tspan fill="rgb(0,0,0)" stroke="none" style="white-space: pre">3000</tspan></tspan></tspan></text>
 <text class="SVGTextShape"><tspan class="TextParagraph" font-family="Liberation Sans, sans-serif" font-size="353px" font-weight="400"><tspan class="TextPosition" x="10919" y="7742"><tspan fill="rgb(0,0,0)" stroke="none" style="white-space: pre">3500</tspan></tspan></tspan></text>
 <text class="SVGTextShape"><tspan class="TextParagraph" font-family="Liberation Sans, sans-serif" font-size="353px" font-weight="400"><tspan class="TextPosition" x="1319" y="7295"><tspan fill="rgb(0,0,0)" stroke="none" style="white-space: pre">0.00E+00</tspan></tspan></tspan></text>
 <text class="SVGTextShape"><tspan class="TextParagraph" font-family="Liberation Sans, sans-serif" font-size="353px" font-weight="400"><tspan class="TextPosition" x="1319" y="6601"><tspan fill="rgb(0,0,0)" stroke="none" style="white-space: pre">5.00E+00</tspan></tspan></tspan></text>
 <text class="SVGTextShape"><tspan class="TextParagraph" font-family="Liberation Sans, sans-serif" font-size="353px" font-weight="400"><tspan class="TextPosition" x="1319" y="5907"><tspan fill="rgb(0,0,0)" stroke="none" style="white-space: pre">1.00E+01</tspan></tspan></tspan></text>
 <text class="SVGTextShape"><tspan class="TextParagraph" font-family="Liberation Sans, sans-serif" font-size="353px" font-weight="400"><tspan class="TextPosition" x="1319" y="5214"><tspan fill="rgb(0,0,0)" stroke="none" style="white-space: pre">1.50E+01</tspan></tspan></tspan></text>
 <text class="SVGTextShape"><tspan class="TextParagraph" font-family="Liberation Sans, sans-serif" font-size="353px" font-weight="400"><tspan class="TextPosition" x="1319" y="4520"><tspan fill="rgb(0,0,0)" stroke="none" style="white-space: pre">2.00E+01</tspan></tspan></tspan></text>
 <text class="SVGTextShape"><tspan class="TextParagraph" font-family="Liberation Sans, sans-serif" font-size="353px" font-weight="400"><tspan class="TextPosition" x="1319" y="3827"><tspan fill="rgb(0,0,0)" stroke="none" style="white-space: pre">2.50E+01</tspan></tspan></tspan></text>
 <text class="SVGTextShape"><tspan class="TextParagraph" font-family="Liberation Sans, sans-serif" font-size="353px" font-weight="400"><tspan class="TextPosition" x="1319" y="3133"><tspan fill="rgb(0,0,0)" stroke="none" style="white-space: pre">3.00E+01</tspan></tspan></tspan></text>
 <text class="SVGTextShape"><tspan class="TextParagraph" font-family="Liberation Sans, sans-serif" font-size="353px" font-weight="400"><tspan class="TextPosition" x="1319" y="2440"><tspan fill="rgb(0,0,0)" stroke="none" style="white-space: pre">3.50E+01</tspan></tspan></tspan></text>
 <text class="SVGTextShape"><tspan class="TextParagraph" font-family="Liberation Sans, sans-serif" font-size="459px" font-weight="400"><tspan class="TextPosition" x="5928" y="837"><tspan fill="rgb(0,0,0)" stroke="none" style="white-space: pre">Tiempo de Ejecución</tspan></tspan></tspan></text>
 <text class="SVGTextShape"><tspan class="TextParagraph" font-family="Liberation Sans, sans-serif" font-size="388px" font-weight="400"><tspan class="TextPosition" x="6259" y="1746"><tspan fill="rgb(0,0,0)" stroke="none" style="white-space: pre">MyDGEMM (IccO3)</tspan></tspan></tspan></text>
 <path fill="none" stroke="rgb(0,69,134)" stroke-width="80" stroke-linejoin="round" d="M 12097,3239 L 12897,3239"/>
 <path fill="rgb(0,69,134)" stroke="none" d="M 12391,3134 L 12391,3345 12602,3345 12602,3134 12391,3134 Z"/>
 <path fill="none" stroke="rgb(0,69,134)" stroke-linejoin="round" d="M 12391,3134 L 12391,3345 12602,3345 12602,3134 12391,3134 Z"/>
 <path fill="none" stroke="rgb(255,66,14)" stroke-width="80" stroke-linejoin="round" d="M 12097,3737 L 12897,3737"/>
 <path fill="rgb(255,66,14)" stroke="none" d="M 12391,3737 L 12497,3843 12602,3737 12497,3632 12391,3737 Z"/>
 <path fill="none" stroke="rgb(255,66,14)" stroke-linejoin="round" d="M 12391,3737 L 12497,3843 12602,3737 12497,3632 12391,3737 Z"/>
 <path fill="none" stroke="rgb(255,211,32)" stroke-width="80" stroke-linejoin="round" d="M 12097,4235 L 12897,4235"/>
 <path fill="rgb(255,211,32)" stroke="none" d="M 12391,4130 L 12497,4341 12602,4130 12391,4130 Z"/>
 <path fill="none" stroke="rgb(255,211,32)" stroke-linejoin="round" d="M 12391,4130 L 12497,4341 12602,4130 12391,4130 Z"/>
 <path fill="none" stroke="rgb(87,157,28)" stroke-width="80" stroke-linejoin="round" d="M 12097,4732 L 12897,4732"/>
 <path fill="rgb(87,157,28)" stroke="none" d="M 12391,4838 L 12602,4838 12497,4627 12391,4838 Z"/>
 <path fill="none" stroke="rgb(87,157,28)" stroke-linejoin="round" d="M 12391,4838 L 12602,4838 12497,4627 12391,4838 Z"/>
 <path fill="none" stroke="rgb(126,0,33)" stroke-width="80" stroke-linejoin="round" d="M 12097,5230 L 12897,5230"/>
 <path fill="rgb(126,0,33)" stroke="none" d="M 12391,5125 L 12391,5336 12602,5230 12391,5125 Z"/>
 <path fill="none" stroke="rgb(126,0,33)" stroke-linejoin="round" d="M 12391,5125 L 12391,5336 12602,5230 12391,5125 Z"/>
 <path fill="none" stroke="rgb(131,202,255)" stroke-width="80" stroke-linejoin="round" d="M 12097,5728 L 12897,5728"/>
 <path fill="rgb(131,202,255)" stroke="none" d="M 12391,5728 L 12602,5834 12602,5623 12391,5728 Z"/>
 <path fill="none" stroke="rgb(131,202,255)" stroke-linejoin="round" d="M 12391,5728 L 12602,5834 12602,5623 12391,5728 Z"/>
 <text class="SVGTextShape"><tspan class="TextParagraph" font-family="Liberation Sans, sans-serif" font-size="353px" font-weight="400"><tspan class="TextPosition" x="12997" y="3359"><tspan fill="rgb(0,0,0)" stroke="none" style="white-space: pre">i3_secuencial</tspan></tspan></tspan></text>
 <text class="SVGTextShape"><tspan class="TextParagraph" font-family="Liberation Sans, sans-serif" font-size="353px" font-weight="400"><tspan class="TextPosition" x="12997" y="3857"><tspan fill="rgb(0,0,0)" stroke="none" style="white-space: pre">i3_paralelo</tspan></tspan></tspan></text>
 <text class="SVGTextShape"><tspan class="TextParagraph" font-family="Liberation Sans, sans-serif" font-size="353px" font-weight="400"><tspan class="TextPosition" x="12997" y="4355"><tspan fill="rgb(0,0,0)" stroke="none" style="white-space: pre">ryzen_secuencial</tspan></tspan></tspan></text>
 <text class="SVGTextShape"><tspan class="TextParagraph" font-family="Liberation Sans, sans-serif" font-size="353px" font-weight="400"><tspan class="TextPosition" x="12997" y="4852"><tspan fill="rgb(0,0,0)" stroke="none" style="white-space: pre">ryzen_paralelo</tspan></tspan></tspan></text>
 <text class="SVGTextShape"><tspan class="TextParagraph" font-family="Liberation Sans, sans-serif" font-size="353px" font-weight="400"><tspan class="TextPosition" x="12997" y="5350"><tspan fill="rgb(0,0,0)" stroke="none" style="white-space: pre">xeon_secuencial</tspan></tspan></tspan></text>
 <text class="SVGTextShape"><tspan class="TextParagraph" font-family="Liberation Sans, sans-serif" font-size="353px" font-weight="400"><tspan class="TextPosition" x="12997" y="5848"><tspan fill="rgb(0,0,0)" stroke="none" style="white-space: pre">xeon_paralelo</tspan></tspan></tspan></text>
 <text class="SVGTextShape"><tspan class="TextParagraph" font-family="Liberation Sans, sans-serif" font-size="318px" font-weight="400"><tspan class="TextPosition" x="6133" y="8388"><tspan fill="rgb(0,0,0)" stroke="none" style="white-space: pre">Talla</tspan></tspan></tspan></text>
 <text class="SVGTextShape" transform="rotate(-90 824 5514)"><tspan class="TextParagraph" font-family="Liberation Sans, sans-serif" font-size="318px" font-weight="400"><tspan class="TextPosition" x="824" y="5514"><tspan fill="rgb(0,0,0)" stroke="none" style="white-space: pre">Tiempo</tspan></tspan></tspan></text>
</svg>