<?xml version="1.0" encoding="UTF-8"?>
<!DOCTYPE svg PUBLIC "-//W3C//DTD SVG 1.1//EN" "http://www.w3.org/Graphics/SVG/1.1/DTD/svg11.dtd">
<svg width="160mm" height="90mm" viewBox="0 0 16000 9000" version="1.1" xmlns="http://www.w3.org/2000/svg" xmlns:xlink="http://www.w3.org/1999/xlink" stroke-width="28.222" stroke-linejoin="round" xml:space="preserve">
 <path fill="rgb(255,255,255)" stroke="none" d="M 7987,8986 L -13,8986 -13,-13 15986,-13 15986,8986 7987,8986 Z"/>
 <path fill="none" stroke="rgb(179,179,179)" stroke-linejoin="round" d="M 7923,7178 L 1939,7178 1939,2324 13906,2324 13906,7178 7923,7178 Z"/>
 <path fill="none" stroke="rgb(179,179,179)" stroke-linejoin="round" d="M 13906,7177 L 1939,7177"/>
 <path fill="none" stroke="rgb(179,179,179)" stroke-linejoin="round" d="M 13906,6691 L 1939,6691"/>
 <path fill="none" stroke="rgb(179,179,179)" stroke-linejoin="round" d="M 13906,6206 L 1939,6206"/>
 <path fill="none" stroke="rgb(179,179,179)" stroke-linejoin="round" d="M 13906,5720 L 1939,5720"/>
 <path fill="none" stroke="rgb(179,179,179)" stroke-linejoin="round" d="M 13906,5235 L 1939,5235"/>
 <path fill="none" stroke="rgb(179,179,179)" stroke-linejoin="round" d="M 13906,4749 L 1939,4749"/>
 <path fill="none" stroke="rgb(179,179,179)" stroke-linejoin="round" d="M 13906,4265 L 1939,4265"/>
 <path fill="none" stroke="rgb(179,179,179)" stroke-linejoin="round" d="M 13906,3779 L 1939,3779"/>
 <path fill="none" stroke="rgb(179,179,179)" stroke-linejoin="round" d="M 13906,3294 L 1939,3294"/>
 <path fill="none" stroke="rgb(179,179,179)" stroke-linejoin="round" d="M 13906,2808 L 1939,2808"/>
 <path fill="none" stroke="rgb(179,179,179)" stroke-linejoin="round" d="M 13906,2323 L 1939,2323"/>
 <path fill="none" stroke="rgb(179,179,179)" stroke-linejoin="round" d="M 1939,7327 L 1939,7177"/>
 <path fill="none" stroke="rgb(179,179,179)" stroke-linejoin="round" d="M 1939,7327 L 1939,7177"/>
 <path fill="none" stroke="rgb(179,179,179)" stroke-linejoin="round" d="M 4332,7327 L 4332,7177"/>
 <path fill="none" stroke="rgb(179,179,179)" stroke-linejoin="round" d="M 4332,7327 L 4332,7177"/>
 <path fill="none" stroke="rgb(179,179,179)" stroke-linejoin="round" d="M 6726,7327 L 6726,7177"/>
 <path fill="none" stroke="rgb(179,179,179)" stroke-linejoin="round" d="M 6726,7327 L 6726,7177"/>
 <path fill="none" stroke="rgb(179,179,179)" stroke-linejoin="round" d="M 9118,7327 L 9118,7177"/>
 <path fill="none" stroke="rgb(179,179,179)" stroke-linejoin="round" d="M 9118,7327 L 9118,7177"/>
 <path fill="none" stroke="rgb(179,179,179)" stroke-linejoin="round" d="M 11512,7327 L 11512,7177"/>
 <path fill="none" stroke="rgb(179,179,179)" stroke-linejoin="round" d="M 11512,7327 L 11512,7177"/>
 <path fill="none" stroke="rgb(179,179,179)" stroke-linejoin="round" d="M 13906,7327 L 13906,7177"/>
 <path fill="none" stroke="rgb(179,179,179)" stroke-linejoin="round" d="M 13906,7327 L 13906,7177"/>
 <path fill="none" stroke="rgb(179,179,179)" stroke-linejoin="round" d="M 1939,7177 L 13906,7177"/>
 <path fill="none" stroke="rgb(179,179,179)" stroke-linejoin="round" d="M 1789,7177 L 1939,7177"/>
 <path fill="none" stroke="rgb(179,179,179)" stroke-linejoin="round" d="M 1789,7177 L 1939,7177"/>
 <path fill="none" stroke="rgb(179,179,179)" stroke-linejoin="round" d="M 1789,6691 L 1939,6691"/>
 <path fill="none" stroke="rgb(179,179,179)" stroke-linejoin="round" d="M 1789,6691 L 1939,6691"/>
 <path fill="none" stroke="rgb(179,179,179)" stroke-linejoin="round" d="M 1789,6206 L 1939,6206"/>
 <path fill="none" stroke="rgb(179,179,179)" stroke-linejoin="round" d="M 1789,6206 L 1939,6206"/>
 <path fill="none" stroke="rgb(179,179,179)" stroke-linejoin="round" d="M 1789,5720 L 1939,5720"/>
 <path fill="none" stroke="rgb(179,179,179)" stroke-linejoin="round" d="M 1789,5720 L 1939,5720"/>
 <path fill="none" stroke="rgb(179,179,179)" stroke-linejoin="round" d="M 1789,5235 L 1939,5235"/>
 <path fill="none" stroke="rgb(179,179,179)" stroke-linejoin="round" d="M 1789,5235 L 1939,5235"/>
 <path fill="none" stroke="rgb(179,179,179)" stroke-linejoin="round" d="M 1789,4749 L 1939,4749"/>
 <path fill="none" stroke="rgb(179,179,179)" stroke-linejoin="round" d="M 1789,4749 L 1939,4749"/>
 <path fill="none" stroke="rgb(179,179,179)" stroke-linejoin="round" d="M 1789,4265 L 1939,4265"/>
 <path fill="none" stroke="rgb(179,179,179)" stroke-linejoin="round" d="M 1789,4265 L 1939,4265"/>
 <path fill="none" stroke="rgb(179,179,179)" stroke-linejoin="round" d="M 1789,3779 L 1939,3779"/>
 <path fill="none" stroke="rgb(179,179,179)" stroke-linejoin="round" d="M 1789,3779 L 1939,3779"/>
 <path fill="none" stroke="rgb(179,179,179)" stroke-linejoin="round" d="M 1789,3294 L 1939,3294"/>
 <path fill="none" stroke="rgb(179,179,179)" stroke-linejoin="round" d="M 1789,3294 L 1939,3294"/>
 <path fill="none" stroke="rgb(179,179,179)" stroke-linejoin="round" d="M 1789,2808 L 1939,2808"/>
 <path fill="none" stroke="rgb(179,179,179)" stroke-linejoin="round" d="M 1789,2808 L 1939,2808"/>
 <path fill="none" stroke="rgb(179,179,179)" stroke-linejoin="round" d="M 1789,2323 L 1939,2323"/>
 <path fill="none" stroke="rgb(179,179,179)" stroke-linejoin="round" d="M 1789,2323 L 1939,2323"/>
 <path fill="none" stroke="rgb(179,179,179)" stroke-linejoin="round" d="M 1939,7177 L 1939,2323"/>
 <path fill="rgb(255,66,14)" stroke="none" d="M 2238,7177 L 2836,7177 2836,7099 2238,7099 2238,7177 Z"/>
 <path fill="rgb(255,66,14)" stroke="none" d="M 4631,7177 L 5230,7177 5230,6938 4631,6938 4631,7177 Z"/>
 <path fill="rgb(255,66,14)" stroke="none" d="M 7025,7177 L 7623,7177 7623,6356 7025,6356 7025,7177 Z"/>
 <path fill="rgb(255,66,14)" stroke="none" d="M 9418,7177 L 10016,7177 10016,4211 9418,4211 9418,7177 Z"/>
 <path fill="rgb(255,66,14)" stroke="none" d="M 11811,7177 L 12410,7177 12410,2622 11811,2622 11811,7177 Z"/>
 <path fill="rgb(83,109,254)" stroke="none" d="M 2836,7177 L 3435,7177 3435,7108 2836,7108 2836,7177 Z"/>
 <path fill="rgb(83,109,254)" stroke="none" d="M 5230,7177 L 5828,7177 5828,6938 5230,6938 5230,7177 Z"/>
 <path fill="rgb(83,109,254)" stroke="none" d="M 7623,7177 L 8221,7177 8221,6354 7623,6354 7623,7177 Z"/>
 <path fill="rgb(83,109,254)" stroke="none" d="M 10016,7177 L 10614,7177 10614,4205 10016,4205 10016,7177 Z"/>
 <path fill="rgb(83,109,254)" stroke="none" d="M 12410,7177 L 13008,7177 13008,2555 12410,2555 12410,7177 Z"/>
 <path fill="rgb(255,211,32)" stroke="none" d="M 3435,7177 L 4033,7177 4033,7101 3435,7101 3435,7177 Z"/>
 <path fill="rgb(255,211,32)" stroke="none" d="M 5828,7177 L 6427,7177 6427,6938 5828,6938 5828,7177 Z"/>
 <path fill="rgb(255,211,32)" stroke="none" d="M 8221,7177 L 8819,7177 8819,6365 8221,6365 8221,7177 Z"/>
 <path fill="rgb(255,211,32)" stroke="none" d="M 10614,7177 L 11213,7177 11213,4206 10614,4206 10614,7177 Z"/>
 <path fill="rgb(255,211,32)" stroke="none" d="M 13008,7177 L 13606,7177 13606,2619 13008,2619 13008,7177 Z"/>
 <text class="SVGTextShape"><tspan class="TextParagraph" font-family="Liberation Sans, sans-serif" font-size="353px" font-weight="400"><tspan class="TextPosition" x="2764" y="7745"><tspan fill="rgb(0,0,0)" stroke="none" style="white-space: pre">1024</tspan></tspan></tspan></text>
 <text class="SVGTextShape"><tspan class="TextParagraph" font-family="Liberation Sans, sans-serif" font-size="353px" font-weight="400"><tspan class="TextPosition" x="5158" y="7745"><tspan fill="rgb(0,0,0)" stroke="none" style="white-space: pre">2048</tspan></tspan></tspan></text>
 <text class="SVGTextShape"><tspan class="TextParagraph" font-family="Liberation Sans, sans-serif" font-size="353px" font-weight="400"><tspan class="TextPosition" x="7552" y="7745"><tspan fill="rgb(0,0,0)" stroke="none" style="white-space: pre">4096</tspan></tspan></tspan></text>
 <text class="SVGTextShape"><tspan class="TextParagraph" font-family="Liberation Sans, sans-serif" font-size="353px" font-weight="400"><tspan class="TextPosition" x="9945" y="7745"><tspan fill="rgb(0,0,0)" stroke="none" style="white-space: pre">8192</tspan></tspan></tspan></text>
 <text class="SVGTextShape"><tspan class="TextParagraph" font-family="Liberation Sans, sans-serif" font-size="353px" font-weight="400"><tspan class="TextPosition" x="12247" y="7745"><tspan fill="rgb(0,0,0)" stroke="none" style="white-space: pre">10240</tspan></tspan></tspan></text>
 <text class="SVGTextShape"><tspan class="TextParagraph" font-family="Liberation Sans, sans-serif" font-size="353px" font-weight="400"><tspan class="TextPosition" x="1504" y="7298"><tspan fill="rgb(0,0,0)" stroke="none" style="white-space: pre">0</tspan></tspan></tspan></text>
 <text class="SVGTextShape"><tspan class="TextParagraph" font-family="Liberation Sans, sans-serif" font-size="353px" font-weight="400"><tspan class="TextPosition" x="1504" y="6812"><tspan fill="rgb(0,0,0)" stroke="none" style="white-space: pre">1</tspan></tspan></tspan></text>
 <text class="SVGTextShape"><tspan class="TextParagraph" font-family="Liberation Sans, sans-serif" font-size="353px" font-weight="400"><tspan class="TextPosition" x="1504" y="6327"><tspan fill="rgb(0,0,0)" stroke="none" style="white-space: pre">2</tspan></tspan></tspan></text>
 <text class="SVGTextShape"><tspan class="TextParagraph" font-family="Liberation Sans, sans-serif" font-size="353px" font-weight="400"><tspan class="TextPosition" x="1504" y="5841"><tspan fill="rgb(0,0,0)" stroke="none" style="white-space: pre">3</tspan></tspan></tspan></text>
 <text class="SVGTextShape"><tspan class="TextParagraph" font-family="Liberation Sans, sans-serif" font-size="353px" font-weight="400"><tspan class="TextPosition" x="1504" y="5356"><tspan fill="rgb(0,0,0)" stroke="none" style="white-space: pre">4</tspan></tspan></tspan></text>
 <text class="SVGTextShape"><tspan class="TextParagraph" font-family="Liberation Sans, sans-serif" font-size="353px" font-weight="400"><tspan class="TextPosition" x="1504" y="4870"><tspan fill="rgb(0,0,0)" stroke="none" style="white-space: pre">5</tspan></tspan></tspan></text>
 <text class="SVGTextShape"><tspan class="TextParagraph" font-family="Liberation Sans, sans-serif" font-size="353px" font-weight="400"><tspan class="TextPosition" x="1504" y="4385"><tspan fill="rgb(0,0,0)" stroke="none" style="white-space: pre">6</tspan></tspan></tspan></text>
 <text class="SVGTextShape"><tspan class="TextParagraph" font-family="Liberation Sans, sans-serif" font-size="353px" font-weight="400"><tspan class="TextPosition" x="1504" y="3899"><tspan fill="rgb(0,0,0)" stroke="none" style="white-space: pre">7</tspan></tspan></tspan></text>
 <text class="SVGTextShape"><tspan class="TextParagraph" font-family="Liberation Sans, sans-serif" font-size="353px" font-weight="400"><tspan class="TextPosition" x="1504" y="3414"><tspan fill="rgb(0,0,0)" stroke="none" style="white-space: pre">8</tspan></tspan></tspan></text>
 <text class="SVGTextShape"><tspan class="TextParagraph" font-family="Liberation Sans, sans-serif" font-size="353px" font-weight="400"><tspan class="TextPosition" x="1504" y="2928"><tspan fill="rgb(0,0,0)" stroke="none" style="white-space: pre">9</tspan></tspan></tspan></text>
 <text class="SVGTextShape"><tspan class="TextParagraph" font-family="Liberation Sans, sans-serif" font-size="353px" font-weight="400"><tspan class="TextPosition" x="1319" y="2443"><tspan fill="rgb(0,0,0)" stroke="none" style="white-space: pre">10</tspan></tspan></tspan></text>
 <text class="SVGTextShape"><tspan class="TextParagraph" font-family="Liberation Sans, sans-serif" font-size="459px" font-weight="400"><tspan class="TextPosition" x="7259" y="838"><tspan fill="rgb(0,0,0)" stroke="none" style="white-space: pre">Tiempo</tspan></tspan></tspan></text>
 <text class="SVGTextShape"><tspan class="TextParagraph" font-family="Liberation Sans, sans-serif" font-size="388px" font-weight="400"><tspan class="TextPosition" x="7735" y="1748"><tspan fill="rgb(0,0,0)" stroke="none" style="white-space: pre">1D</tspan></tspan></tspan></text>
 <path fill="rgb(255,66,14)" stroke="none" d="M 14448,4094 L 14342,4094 14342,3883 14553,3883 14553,4094 14448,4094 Z"/>
 <path fill="rgb(83,109,254)" stroke="none" d="M 14448,4591 L 14342,4591 14342,4381 14553,4381 14553,4591 14448,4591 Z"/>
 <path fill="rgb(255,211,32)" stroke="none" d="M 14448,5089 L 14342,5089 14342,4878 14553,4878 14553,5089 14448,5089 Z"/>
 <text class="SVGTextShape"><tspan class="TextParagraph" font-family="Liberation Sans, sans-serif" font-size="353px" font-weight="400"><tspan class="TextPosition" x="14653" y="4108"><tspan fill="rgb(0,0,0)" stroke="none" style="white-space: pre">device</tspan></tspan></tspan></text>
 <text class="SVGTextShape"><tspan class="TextParagraph" font-family="Liberation Sans, sans-serif" font-size="353px" font-weight="400"><tspan class="TextPosition" x="14653" y="4605"><tspan fill="rgb(0,0,0)" stroke="none" style="white-space: pre">pinned</tspan></tspan></tspan></text>
 <text class="SVGTextShape"><tspan class="TextParagraph" font-family="Liberation Sans, sans-serif" font-size="353px" font-weight="400"><tspan class="TextPosition" x="14653" y="5103"><tspan fill="rgb(0,0,0)" stroke="none" style="white-space: pre">unified</tspan></tspan></tspan></text>
 <text class="SVGTextShape"><tspan class="TextParagraph" font-family="Liberation Sans, sans-serif" font-size="318px" font-weight="400"><tspan class="TextPosition" x="6792" y="8392"><tspan fill="rgb(0,0,0)" stroke="none" style="white-space: pre">Resolucion</tspan></tspan></tspan></text>
 <text class="SVGTextShape" transform="rotate(-90 824 5517)"><tspan class="TextParagraph" font-family="Liberation Sans, sans-serif" font-size="318px" font-weight="400"><tspan class="TextPosition" x="824" y="5517"><tspan fill="rgb(0,0,0)" stroke="none" style="white-space: pre">Tiempo</tspan></tspan></tspan></text>
</svg>