<?xml version="1.0" encoding="UTF-8"?>
<!DOCTYPE svg PUBLIC "-//W3C//DTD SVG 1.1//EN" "http://www.w3.org/Graphics/SVG/1.1/DTD/svg11.dtd">
<svg width="160mm" height="90mm" viewBox="0 0 16000 9000" version="1.1" xmlns="http://www.w3.org/2000/svg" xmlns:xlink="http://www.w3.org/1999/xlink" stroke-width="28.222" stroke-linejoin="round" xml:space="preserve">
 <path fill="rgb(255,255,255)" stroke="none" d="M 7987,8986 L -13,8986 -13,-13 15986,-13 15986,8986 7987,8986 Z"/>
 <path fill="none" stroke="rgb(179,179,179)" stroke-linejoin="round" d="M 6357,7178 L 1939,7178 1939,2324 10775,2324 10775,7178 6357,7178 Z"/>
 <path fill="none" stroke="rgb(179,179,179)" stroke-linejoin="round" d="M 10775,7177 L 1939,7177"/>
 <path fill="none" stroke="rgb(179,179,179)" stroke-linejoin="round" d="M 10775,6570 L 1939,6570"/>
 <path fill="none" stroke="rgb(179,179,179)" stroke-linejoin="round" d="M 10775,5963 L 1939,5963"/>
 <path fill="none" stroke="rgb(179,179,179)" stroke-linejoin="round" d="M 10775,5356 L 1939,5356"/>
 <path fill="none" stroke="rgb(179,179,179)" stroke-linejoin="round" d="M 10775,4749 L 1939,4749"/>
 <path fill="none" stroke="rgb(179,179,179)" stroke-linejoin="round" d="M 10775,4143 L 1939,4143"/>
 <path fill="none" stroke="rgb(179,179,179)" stroke-linejoin="round" d="M 10775,3536 L 1939,3536"/>
 <path fill="none" stroke="rgb(179,179,179)" stroke-linejoin="round" d="M 10775,2929 L 1939,2929"/>
 <path fill="none" stroke="rgb(179,179,179)" stroke-linejoin="round" d="M 10775,2323 L 1939,2323"/>
 <path fill="none" stroke="rgb(179,179,179)" stroke-linejoin="round" d="M 1939,7327 L 1939,7177"/>
 <path fill="none" stroke="rgb(179,179,179)" stroke-linejoin="round" d="M 1939,7327 L 1939,7177"/>
 <path fill="none" stroke="rgb(179,179,179)" stroke-linejoin="round" d="M 2920,7327 L 2920,7177"/>
 <path fill="none" stroke="rgb(179,179,179)" stroke-linejoin="round" d="M 2920,7327 L 2920,7177"/>
 <path fill="none" stroke="rgb(179,179,179)" stroke-linejoin="round" d="M 3902,7327 L 3902,7177"/>
 <path fill="none" stroke="rgb(179,179,179)" stroke-linejoin="round" d="M 3902,7327 L 3902,7177"/>
 <path fill="none" stroke="rgb(179,179,179)" stroke-linejoin="round" d="M 4884,7327 L 4884,7177"/>
 <path fill="none" stroke="rgb(179,179,179)" stroke-linejoin="round" d="M 4884,7327 L 4884,7177"/>
 <path fill="none" stroke="rgb(179,179,179)" stroke-linejoin="round" d="M 5866,7327 L 5866,7177"/>
 <path fill="none" stroke="rgb(179,179,179)" stroke-linejoin="round" d="M 5866,7327 L 5866,7177"/>
 <path fill="none" stroke="rgb(179,179,179)" stroke-linejoin="round" d="M 6848,7327 L 6848,7177"/>
 <path fill="none" stroke="rgb(179,179,179)" stroke-linejoin="round" d="M 6848,7327 L 6848,7177"/>
 <path fill="none" stroke="rgb(179,179,179)" stroke-linejoin="round" d="M 7830,7327 L 7830,7177"/>
 <path fill="none" stroke="rgb(179,179,179)" stroke-linejoin="round" d="M 7830,7327 L 7830,7177"/>
 <path fill="none" stroke="rgb(179,179,179)" stroke-linejoin="round" d="M 8811,7327 L 8811,7177"/>
 <path fill="none" stroke="rgb(179,179,179)" stroke-linejoin="round" d="M 8811,7327 L 8811,7177"/>
 <path fill="none" stroke="rgb(179,179,179)" stroke-linejoin="round" d="M 9793,7327 L 9793,7177"/>
 <path fill="none" stroke="rgb(179,179,179)" stroke-linejoin="round" d="M 9793,7327 L 9793,7177"/>
 <path fill="none" stroke="rgb(179,179,179)" stroke-linejoin="round" d="M 10775,7327 L 10775,7177"/>
 <path fill="none" stroke="rgb(179,179,179)" stroke-linejoin="round" d="M 10775,7327 L 10775,7177"/>
 <path fill="none" stroke="rgb(179,179,179)" stroke-linejoin="round" d="M 1939,7177 L 10775,7177"/>
 <path fill="none" stroke="rgb(179,179,179)" stroke-linejoin="round" d="M 1789,7177 L 1939,7177"/>
 <path fill="none" stroke="rgb(179,179,179)" stroke-linejoin="round" d="M 1789,7177 L 1939,7177"/>
 <path fill="none" stroke="rgb(179,179,179)" stroke-linejoin="round" d="M 1789,6570 L 1939,6570"/>
 <path fill="none" stroke="rgb(179,179,179)" stroke-linejoin="round" d="M 1789,6570 L 1939,6570"/>
 <path fill="none" stroke="rgb(179,179,179)" stroke-linejoin="round" d="M 1789,5963 L 1939,5963"/>
 <path fill="none" stroke="rgb(179,179,179)" stroke-linejoin="round" d="M 1789,5963 L 1939,5963"/>
 <path fill="none" stroke="rgb(179,179,179)" stroke-linejoin="round" d="M 1789,5356 L 1939,5356"/>
 <path fill="none" stroke="rgb(179,179,179)" stroke-linejoin="round" d="M 1789,5356 L 1939,5356"/>
 <path fill="none" stroke="rgb(179,179,179)" stroke-linejoin="round" d="M 1789,4749 L 1939,4749"/>
 <path fill="none" stroke="rgb(179,179,179)" stroke-linejoin="round" d="M 1789,4749 L 1939,4749"/>
 <path fill="none" stroke="rgb(179,179,179)" stroke-linejoin="round" d="M 1789,4143 L 1939,4143"/>
 <path fill="none" stroke="rgb(179,179,179)" stroke-linejoin="round" d="M 1789,4143 L 1939,4143"/>
 <path fill="none" stroke="rgb(179,179,179)" stroke-linejoin="round" d="M 1789,3536 L 1939,3536"/>
 <path fill="none" stroke="rgb(179,179,179)" stroke-linejoin="round" d="M 1789,3536 L 1939,3536"/>
 <path fill="none" stroke="rgb(179,179,179)" stroke-linejoin="round" d="M 1789,2929 L 1939,2929"/>
 <path fill="none" stroke="rgb(179,179,179)" stroke-linejoin="round" d="M 1789,2929 L 1939,2929"/>
 <path fill="none" stroke="rgb(179,179,179)" stroke-linejoin="round" d="M 1789,2323 L 1939,2323"/>
 <path fill="none" stroke="rgb(179,179,179)" stroke-linejoin="round" d="M 1789,2323 L 1939,2323"/>
 <path fill="none" stroke="rgb(179,179,179)" stroke-linejoin="round" d="M 1939,7177 L 1939,2323"/>
 <path fill="none" stroke="rgb(255,211,32)" stroke-width="80" stroke-linejoin="round" d="M 2190,7172 L 2200,7171 2222,7170 2232,7169 2243,7169 2265,7167 2277,7166 2288,7166 2300,7165 2312,7164 2325,7164 2338,7163 2365,7162 2379,7161 2394,7161 2409,7160 2425,7159 2441,7159 2458,7158 2476,7157 2494,7157 2513,7156 2533,7155 2553,7154 2575,7153 2597,7152 2620,7150 2644,7148 2669,7146 2695,7143 2722,7140 2751,7136 2780,7133 2810,7128 2842,7123 2875,7118 2909,7112 2944,7105 2981,7098 3019,7090 3058,7082 3099,7073 3141,7063 3184,7053 3229,7043 3275,7033 3323,7022 3372,7010 3423,6999 3475,6987 3529,6975 3584,6963 3641,6951 3700,6939 3760,6927 3821,6915 3885,6903 3949,6892 4016,6880 4085,6868 4155,6855 4229,6841 4304,6825 4383,6807 4466,6786 4552,6762 4641,6734 4735,6702 4833,6665 4936,6622 5044,6574 5157,6520 5276,6459 5400,6391 5530,6316 5667,6232 5810,6139 5960,6037 6117,5926 6281,5805 6452,5676 6628,5539 6810,5394 6997,5242 7190,5083 7387,4917 7588,4746 7793,4570 8001,4389 8213,4204 8428,4014 8645,3821 8864,3626 9086,3427 9308,3227 9532,3026 9756,2823 9981,2620"/>
 <path fill="rgb(255,211,32)" stroke="none" d="M 2065,7047 L 2190,7297 2315,7047 2065,7047 Z"/>
 <path fill="none" stroke="rgb(255,211,32)" stroke-linejoin="round" d="M 2065,7047 L 2190,7297 2315,7047 2065,7047 Z"/>
 <path fill="rgb(255,211,32)" stroke="none" d="M 2316,7034 L 2441,7284 2566,7034 2316,7034 Z"/>
 <path fill="none" stroke="rgb(255,211,32)" stroke-linejoin="round" d="M 2316,7034 L 2441,7284 2566,7034 2316,7034 Z"/>
 <path fill="rgb(255,211,32)" stroke="none" d="M 2819,6980 L 2944,7230 3069,6980 2819,6980 Z"/>
 <path fill="none" stroke="rgb(255,211,32)" stroke-linejoin="round" d="M 2819,6980 L 2944,7230 3069,6980 2819,6980 Z"/>
 <path fill="rgb(255,211,32)" stroke="none" d="M 3824,6767 L 3949,7017 4074,6767 3824,6767 Z"/>
 <path fill="none" stroke="rgb(255,211,32)" stroke-linejoin="round" d="M 3824,6767 L 3949,7017 4074,6767 3824,6767 Z"/>
 <path fill="rgb(255,211,32)" stroke="none" d="M 5835,5912 L 5960,6162 6085,5912 5835,5912 Z"/>
 <path fill="none" stroke="rgb(255,211,32)" stroke-linejoin="round" d="M 5835,5912 L 5960,6162 6085,5912 5835,5912 Z"/>
 <path fill="rgb(255,211,32)" stroke="none" d="M 9856,2495 L 9981,2745 10106,2495 9856,2495 Z"/>
 <path fill="none" stroke="rgb(255,211,32)" stroke-linejoin="round" d="M 9856,2495 L 9981,2745 10106,2495 9856,2495 Z"/>
 <path fill="none" stroke="rgb(255,66,14)" stroke-width="80" stroke-linejoin="round" d="M 2190,7167 L 2200,7167 2222,7166 2232,7166 2243,7165 2265,7164 2277,7164 2288,7164 2300,7163 2312,7163 2325,7162 2338,7162 2365,7161 2379,7161 2394,7160 2409,7160 2425,7159 2441,7159 2458,7158 2476,7158 2494,7157 2513,7156 2533,7156 2553,7155 2575,7153 2597,7152 2620,7150 2644,7149 2669,7146 2695,7144 2722,7141 2751,7138 2780,7134 2810,7130 2842,7126 2875,7121 2909,7116 2944,7110 2981,7103 3019,7096 3058,7089 3099,7081 3141,7072 3184,7064 3229,7055 3275,7045 3323,7036 3372,7026 3423,7016 3475,7006 3529,6996 3584,6986 3641,6976 3700,6966 3760,6956 3821,6946 3885,6937 3949,6927 4016,6918 4085,6909 4155,6899 4229,6888 4304,6875 4383,6861 4466,6844 4552,6824 4641,6801 4735,6774 4833,6743 4936,6707 5044,6667 5157,6620 5276,6568 5400,6510 5530,6445 5667,6372 5810,6292 5960,6203 6117,6107 6281,6002 6452,5889 6628,5769 6810,5642 6997,5508 7190,5369 7387,5224 7588,5074 7793,4919 8001,4760 8213,4597 8428,4432 8645,4262 8864,4090 9086,3916 9308,3740 9532,3563 9756,3385 9981,3207"/>
 <path fill="rgb(255,66,14)" stroke="none" d="M 2065,7167 L 2190,7292 2315,7167 2190,7042 2065,7167 Z"/>
 <path fill="none" stroke="rgb(255,66,14)" stroke-linejoin="round" d="M 2065,7167 L 2190,7292 2315,7167 2190,7042 2065,7167 Z"/>
 <path fill="rgb(255,66,14)" stroke="none" d="M 2316,7159 L 2441,7284 2566,7159 2441,7034 2316,7159 Z"/>
 <path fill="none" stroke="rgb(255,66,14)" stroke-linejoin="round" d="M 2316,7159 L 2441,7284 2566,7159 2441,7034 2316,7159 Z"/>
 <path fill="rgb(255,66,14)" stroke="none" d="M 2819,7110 L 2944,7235 3069,7110 2944,6985 2819,7110 Z"/>
 <path fill="none" stroke="rgb(255,66,14)" stroke-linejoin="round" d="M 2819,7110 L 2944,7235 3069,7110 2944,6985 2819,7110 Z"/>
 <path fill="rgb(255,66,14)" stroke="none" d="M 3824,6927 L 3949,7052 4074,6927 3949,6802 3824,6927 Z"/>
 <path fill="none" stroke="rgb(255,66,14)" stroke-linejoin="round" d="M 3824,6927 L 3949,7052 4074,6927 3949,6802 3824,6927 Z"/>
 <path fill="rgb(255,66,14)" stroke="none" d="M 5835,6203 L 5960,6328 6085,6203 5960,6078 5835,6203 Z"/>
 <path fill="none" stroke="rgb(255,66,14)" stroke-linejoin="round" d="M 5835,6203 L 5960,6328 6085,6203 5960,6078 5835,6203 Z"/>
 <path fill="rgb(255,66,14)" stroke="none" d="M 9856,3207 L 9981,3332 10106,3207 9981,3082 9856,3207 Z"/>
 <path fill="none" stroke="rgb(255,66,14)" stroke-linejoin="round" d="M 9856,3207 L 9981,3332 10106,3207 9981,3082 9856,3207 Z"/>
 <path fill="none" stroke="rgb(0,69,134)" stroke-width="80" stroke-linejoin="round" d="M 2190,7176 L 2200,7176 2222,7176 2232,7176 2243,7176 2265,7176 2277,7176 2288,7176 2300,7176 2312,7176 2325,7176 2338,7176 2365,7176 2379,7176 2394,7176 2409,7176 2425,7176 2441,7176 2458,7176 2476,7176 2494,7176 2513,7176 2533,7176 2553,7176 2575,7176 2597,7176 2620,7176 2644,7176 2669,7176 2695,7176 2722,7176 2751,7176 2780,7176 2810,7176 2842,7176 2875,7176 2909,7176 2944,7176 2981,7176 3019,7176 3058,7176 3099,7176 3141,7176 3184,7176 3229,7176 3275,7176 3323,7176 3372,7176 3423,7176 3475,7176 3529,7176 3584,7176 3641,7176 3700,7176 3760,7176 3821,7176 3885,7176 3949,7176 4016,7176 4085,7176 4155,7176 4229,7176 4304,7176 4383,7176 4466,7176 4552,7176 4641,7176 4735,7176 4833,7176 4936,7176 5044,7176 5157,7176 5276,7175 5400,7175 5530,7175 5667,7175 5810,7175 5960,7175 6117,7175 6281,7175 6452,7174 6628,7174 6810,7174 6997,7174 7190,7173 7387,7173 7588,7173 7793,7173 8001,7172 8213,7172 8428,7172 8645,7172 8864,7171 9086,7171 9308,7171 9532,7170 9756,7170 9981,7170"/>
 <path fill="rgb(0,69,134)" stroke="none" d="M 2065,7051 L 2065,7301 2315,7301 2315,7051 2065,7051 Z"/>
 <path fill="none" stroke="rgb(0,69,134)" stroke-linejoin="round" d="M 2065,7051 L 2065,7301 2315,7301 2315,7051 2065,7051 Z"/>
 <path fill="rgb(0,69,134)" stroke="none" d="M 2316,7051 L 2316,7301 2566,7301 2566,7051 2316,7051 Z"/>
 <path fill="none" stroke="rgb(0,69,134)" stroke-linejoin="round" d="M 2316,7051 L 2316,7301 2566,7301 2566,7051 2316,7051 Z"/>
 <path fill="rgb(0,69,134)" stroke="none" d="M 2819,7051 L 2819,7301 3069,7301 3069,7051 2819,7051 Z"/>
 <path fill="none" stroke="rgb(0,69,134)" stroke-linejoin="round" d="M 2819,7051 L 2819,7301 3069,7301 3069,7051 2819,7051 Z"/>
 <path fill="rgb(0,69,134)" stroke="none" d="M 3824,7051 L 3824,7301 4074,7301 4074,7051 3824,7051 Z"/>
 <path fill="none" stroke="rgb(0,69,134)" stroke-linejoin="round" d="M 3824,7051 L 3824,7301 4074,7301 4074,7051 3824,7051 Z"/>
 <path fill="rgb(0,69,134)" stroke="none" d="M 5835,7050 L 5835,7300 6085,7300 6085,7050 5835,7050 Z"/>
 <path fill="none" stroke="rgb(0,69,134)" stroke-linejoin="round" d="M 5835,7050 L 5835,7300 6085,7300 6085,7050 5835,7050 Z"/>
 <path fill="rgb(0,69,134)" stroke="none" d="M 9856,7045 L 9856,7295 10106,7295 10106,7045 9856,7045 Z"/>
 <path fill="none" stroke="rgb(0,69,134)" stroke-linejoin="round" d="M 9856,7045 L 9856,7295 10106,7295 10106,7045 9856,7045 Z"/>
 <text class="SVGTextShape"><tspan class="TextParagraph" font-family="Liberation Sans, sans-serif" font-size="353px" font-weight="400"><tspan class="TextPosition" x="1846" y="7745"><tspan fill="rgb(0,0,0)" stroke="none" style="white-space: pre">0</tspan></tspan></tspan></text>
 <text class="SVGTextShape"><tspan class="TextParagraph" font-family="Liberation Sans, sans-serif" font-size="353px" font-weight="400"><tspan class="TextPosition" x="2549" y="7745"><tspan fill="rgb(0,0,0)" stroke="none" style="white-space: pre">1000</tspan></tspan></tspan></text>
 <text class="SVGTextShape"><tspan class="TextParagraph" font-family="Liberation Sans, sans-serif" font-size="353px" font-weight="400"><tspan class="TextPosition" x="3531" y="7745"><tspan fill="rgb(0,0,0)" stroke="none" style="white-space: pre">2000</tspan></tspan></tspan></text>
 <text class="SVGTextShape"><tspan class="TextParagraph" font-family="Liberation Sans, sans-serif" font-size="353px" font-weight="400"><tspan class="TextPosition" x="4513" y="7745"><tspan fill="rgb(0,0,0)" stroke="none" style="white-space: pre">3000</tspan></tspan></tspan></text>
 <text class="SVGTextShape"><tspan class="TextParagraph" font-family="Liberation Sans, sans-serif" font-size="353px" font-weight="400"><tspan class="TextPosition" x="5495" y="7745"><tspan fill="rgb(0,0,0)" stroke="none" style="white-space: pre">4000</tspan></tspan></tspan></text>
 <text class="SVGTextShape"><tspan class="TextParagraph" font-family="Liberation Sans, sans-serif" font-size="353px" font-weight="400"><tspan class="TextPosition" x="6477" y="7745"><tspan fill="rgb(0,0,0)" stroke="none" style="white-space: pre">5000</tspan></tspan></tspan></text>
 <text class="SVGTextShape"><tspan class="TextParagraph" font-family="Liberation Sans, sans-serif" font-size="353px" font-weight="400"><tspan class="TextPosition" x="7459" y="7745"><tspan fill="rgb(0,0,0)" stroke="none" style="white-space: pre">6000</tspan></tspan></tspan></text>
 <text class="SVGTextShape"><tspan class="TextParagraph" font-family="Liberation Sans, sans-serif" font-size="353px" font-weight="400"><tspan class="TextPosition" x="8441" y="7745"><tspan fill="rgb(0,0,0)" stroke="none" style="white-space: pre">7000</tspan></tspan></tspan></text>
 <text class="SVGTextShape"><tspan class="TextParagraph" font-family="Liberation Sans, sans-serif" font-size="353px" font-weight="400"><tspan class="TextPosition" x="9423" y="7745"><tspan fill="rgb(0,0,0)" stroke="none" style="white-space: pre">8000</tspan></tspan></tspan></text>
 <text class="SVGTextShape"><tspan class="TextParagraph" font-family="Liberation Sans, sans-serif" font-size="353px" font-weight="400"><tspan class="TextPosition" x="10405" y="7745"><tspan fill="rgb(0,0,0)" stroke="none" style="white-space: pre">9000</tspan></tspan></tspan></text>
 <text class="SVGTextShape"><tspan class="TextParagraph" font-family="Liberation Sans, sans-serif" font-size="353px" font-weight="400"><tspan class="TextPosition" x="1504" y="7298"><tspan fill="rgb(0,0,0)" stroke="none" style="white-space: pre">0</tspan></tspan></tspan></text>
 <text class="SVGTextShape"><tspan class="TextParagraph" font-family="Liberation Sans, sans-serif" font-size="353px" font-weight="400"><tspan class="TextPosition" x="1319" y="6691"><tspan fill="rgb(0,0,0)" stroke="none" style="white-space: pre">10</tspan></tspan></tspan></text>
 <text class="SVGTextShape"><tspan class="TextParagraph" font-family="Liberation Sans, sans-serif" font-size="353px" font-weight="400"><tspan class="TextPosition" x="1319" y="6084"><tspan fill="rgb(0,0,0)" stroke="none" style="white-space: pre">20</tspan></tspan></tspan></text>
 <text class="SVGTextShape"><tspan class="TextParagraph" font-family="Liberation Sans, sans-serif" font-size="353px" font-weight="400"><tspan class="TextPosition" x="1319" y="5477"><tspan fill="rgb(0,0,0)" stroke="none" style="white-space: pre">30</tspan></tspan></tspan></text>
 <text class="SVGTextShape"><tspan class="TextParagraph" font-family="Liberation Sans, sans-serif" font-size="353px" font-weight="400"><tspan class="TextPosition" x="1319" y="4870"><tspan fill="rgb(0,0,0)" stroke="none" style="white-space: pre">40</tspan></tspan></tspan></text>
 <text class="SVGTextShape"><tspan class="TextParagraph" font-family="Liberation Sans, sans-serif" font-size="353px" font-weight="400"><tspan class="TextPosition" x="1319" y="4263"><tspan fill="rgb(0,0,0)" stroke="none" style="white-space: pre">50</tspan></tspan></tspan></text>
 <text class="SVGTextShape"><tspan class="TextParagraph" font-family="Liberation Sans, sans-serif" font-size="353px" font-weight="400"><tspan class="TextPosition" x="1319" y="3656"><tspan fill="rgb(0,0,0)" stroke="none" style="white-space: pre">60</tspan></tspan></tspan></text>
 <text class="SVGTextShape"><tspan class="TextParagraph" font-family="Liberation Sans, sans-serif" font-size="353px" font-weight="400"><tspan class="TextPosition" x="1319" y="3049"><tspan fill="rgb(0,0,0)" stroke="none" style="white-space: pre">70</tspan></tspan></tspan></text>
 <text class="SVGTextShape"><tspan class="TextParagraph" font-family="Liberation Sans, sans-serif" font-size="353px" font-weight="400"><tspan class="TextPosition" x="1319" y="2443"><tspan fill="rgb(0,0,0)" stroke="none" style="white-space: pre">80</tspan></tspan></tspan></text>
 <text class="SVGTextShape"><tspan class="TextParagraph" font-family="Liberation Sans, sans-serif" font-size="459px" font-weight="400"><tspan class="TextPosition" x="7352" y="838"><tspan fill="rgb(0,0,0)" stroke="none" style="white-space: pre">Ryzen</tspan></tspan></tspan></text>
 <text class="SVGTextShape"><tspan class="TextParagraph" font-family="Liberation Sans, sans-serif" font-size="388px" font-weight="400"><tspan class="TextPosition" x="6307" y="1748"><tspan fill="rgb(0,0,0)" stroke="none" style="white-space: pre">Teórico v. Empírico</tspan></tspan></tspan></text>
 <path fill="none" stroke="rgb(0,69,134)" stroke-width="80" stroke-linejoin="round" d="M 11583,3988 L 12383,3988"/>
 <path fill="rgb(0,69,134)" stroke="none" d="M 11877,3883 L 11877,4094 12088,4094 12088,3883 11877,3883 Z"/>
 <path fill="none" stroke="rgb(0,69,134)" stroke-linejoin="round" d="M 11877,3883 L 11877,4094 12088,4094 12088,3883 11877,3883 Z"/>
 <path fill="none" stroke="rgb(255,66,14)" stroke-width="80" stroke-linejoin="round" d="M 11583,4486 L 12383,4486"/>
 <path fill="rgb(255,66,14)" stroke="none" d="M 11877,4486 L 11983,4591 12088,4486 11983,4381 11877,4486 Z"/>
 <path fill="none" stroke="rgb(255,66,14)" stroke-linejoin="round" d="M 11877,4486 L 11983,4591 12088,4486 11983,4381 11877,4486 Z"/>
 <path fill="none" stroke="rgb(255,211,32)" stroke-width="80" stroke-linejoin="round" d="M 11583,4983 L 12383,4983"/>
 <path fill="rgb(255,211,32)" stroke="none" d="M 11877,4878 L 11983,5089 12088,4878 11877,4878 Z"/>
 <path fill="none" stroke="rgb(255,211,32)" stroke-linejoin="round" d="M 11877,4878 L 11983,5089 12088,4878 11877,4878 Z"/>
 <text class="SVGTextShape"><tspan class="TextParagraph" font-family="Liberation Sans, sans-serif" font-size="353px" font-weight="400"><tspan class="TextPosition" x="12483" y="4108"><tspan fill="rgb(0,0,0)" stroke="none" style="white-space: pre">ryzen_mult_teorico</tspan></tspan></tspan></text>
 <text class="SVGTextShape"><tspan class="TextParagraph" font-family="Liberation Sans, sans-serif" font-size="353px" font-weight="400"><tspan class="TextPosition" x="12483" y="4605"><tspan fill="rgb(0,0,0)" stroke="none" style="white-space: pre">ryzen_mult_empirico</tspan></tspan></tspan></text>
 <text class="SVGTextShape"><tspan class="TextParagraph" font-family="Liberation Sans, sans-serif" font-size="353px" font-weight="400"><tspan class="TextPosition" x="12483" y="5103"><tspan fill="rgb(0,0,0)" stroke="none" style="white-space: pre">prediccion</tspan></tspan></tspan></text>
 <text class="SVGTextShape"><tspan class="TextParagraph" font-family="Liberation Sans, sans-serif" font-size="318px" font-weight="400"><tspan class="TextPosition" x="5413" y="8392"><tspan fill="rgb(0,0,0)" stroke="none" style="white-space: pre">Resolucion</tspan></tspan></tspan></text>
 <text class="SVGTextShape" transform="rotate(-90 824 5517)"><tspan class="TextParagraph" font-family="Liberation Sans, sans-serif" font-size="318px" font-weight="400"><tspan class="TextPosition" x="824" y="5517"><tspan fill="rgb(0,0,0)" stroke="none" style="white-space: pre">Tiempo</tspan></tspan></tspan></text>
</svg>