<?xml version="1.0" encoding="UTF-8"?>
<!DOCTYPE svg PUBLIC "-//W3C//DTD SVG 1.1//EN" "http://www.w3.org/Graphics/SVG/1.1/DTD/svg11.dtd">
<svg width="160mm" height="90mm" viewBox="0 0 16000 9000" version="1.1" xmlns="http://www.w3.org/2000/svg" xmlns:xlink="http://www.w3.org/1999/xlink" stroke-width="28.222" stroke-linejoin="round" xml:space="preserve">
 <path fill="rgb(255,255,255)" stroke="none" d="M 7987,8986 L -13,8986 -13,-13 15986,-13 15986,8986 7987,8986 Z"/>
 <path fill="none" stroke="rgb(179,179,179)" stroke-linejoin="round" d="M 7112,7178 L 3051,7178 3051,2324 11172,2324 11172,7178 7112,7178 Z"/>
 <path fill="none" stroke="rgb(179,179,179)" stroke-linejoin="round" d="M 11172,7177 L 3051,7177"/>
 <path fill="none" stroke="rgb(179,179,179)" stroke-linejoin="round" d="M 11172,6483 L 3051,6483"/>
 <path fill="none" stroke="rgb(179,179,179)" stroke-linejoin="round" d="M 11172,5789 L 3051,5789"/>
 <path fill="none" stroke="rgb(179,179,179)" stroke-linejoin="round" d="M 11172,5096 L 3051,5096"/>
 <path fill="none" stroke="rgb(179,179,179)" stroke-linejoin="round" d="M 11172,4403 L 3051,4403"/>
 <path fill="none" stroke="rgb(179,179,179)" stroke-linejoin="round" d="M 11172,3710 L 3051,3710"/>
 <path fill="none" stroke="rgb(179,179,179)" stroke-linejoin="round" d="M 11172,3016 L 3051,3016"/>
 <path fill="none" stroke="rgb(179,179,179)" stroke-linejoin="round" d="M 11172,2323 L 3051,2323"/>
 <path fill="none" stroke="rgb(179,179,179)" stroke-linejoin="round" d="M 3051,7327 L 3051,7177"/>
 <path fill="none" stroke="rgb(179,179,179)" stroke-linejoin="round" d="M 3051,7327 L 3051,7177"/>
 <path fill="none" stroke="rgb(179,179,179)" stroke-linejoin="round" d="M 3953,7327 L 3953,7177"/>
 <path fill="none" stroke="rgb(179,179,179)" stroke-linejoin="round" d="M 3953,7327 L 3953,7177"/>
 <path fill="none" stroke="rgb(179,179,179)" stroke-linejoin="round" d="M 4855,7327 L 4855,7177"/>
 <path fill="none" stroke="rgb(179,179,179)" stroke-linejoin="round" d="M 4855,7327 L 4855,7177"/>
 <path fill="none" stroke="rgb(179,179,179)" stroke-linejoin="round" d="M 5758,7327 L 5758,7177"/>
 <path fill="none" stroke="rgb(179,179,179)" stroke-linejoin="round" d="M 5758,7327 L 5758,7177"/>
 <path fill="none" stroke="rgb(179,179,179)" stroke-linejoin="round" d="M 6660,7327 L 6660,7177"/>
 <path fill="none" stroke="rgb(179,179,179)" stroke-linejoin="round" d="M 6660,7327 L 6660,7177"/>
 <path fill="none" stroke="rgb(179,179,179)" stroke-linejoin="round" d="M 7563,7327 L 7563,7177"/>
 <path fill="none" stroke="rgb(179,179,179)" stroke-linejoin="round" d="M 7563,7327 L 7563,7177"/>
 <path fill="none" stroke="rgb(179,179,179)" stroke-linejoin="round" d="M 8464,7327 L 8464,7177"/>
 <path fill="none" stroke="rgb(179,179,179)" stroke-linejoin="round" d="M 8464,7327 L 8464,7177"/>
 <path fill="none" stroke="rgb(179,179,179)" stroke-linejoin="round" d="M 9367,7327 L 9367,7177"/>
 <path fill="none" stroke="rgb(179,179,179)" stroke-linejoin="round" d="M 9367,7327 L 9367,7177"/>
 <path fill="none" stroke="rgb(179,179,179)" stroke-linejoin="round" d="M 10269,7327 L 10269,7177"/>
 <path fill="none" stroke="rgb(179,179,179)" stroke-linejoin="round" d="M 10269,7327 L 10269,7177"/>
 <path fill="none" stroke="rgb(179,179,179)" stroke-linejoin="round" d="M 11172,7327 L 11172,7177"/>
 <path fill="none" stroke="rgb(179,179,179)" stroke-linejoin="round" d="M 11172,7327 L 11172,7177"/>
 <path fill="none" stroke="rgb(179,179,179)" stroke-linejoin="round" d="M 3051,7177 L 11172,7177"/>
 <path fill="none" stroke="rgb(179,179,179)" stroke-linejoin="round" d="M 2901,7177 L 3051,7177"/>
 <path fill="none" stroke="rgb(179,179,179)" stroke-linejoin="round" d="M 2901,7177 L 3051,7177"/>
 <path fill="none" stroke="rgb(179,179,179)" stroke-linejoin="round" d="M 2901,6483 L 3051,6483"/>
 <path fill="none" stroke="rgb(179,179,179)" stroke-linejoin="round" d="M 2901,6483 L 3051,6483"/>
 <path fill="none" stroke="rgb(179,179,179)" stroke-linejoin="round" d="M 2901,5789 L 3051,5789"/>
 <path fill="none" stroke="rgb(179,179,179)" stroke-linejoin="round" d="M 2901,5789 L 3051,5789"/>
 <path fill="none" stroke="rgb(179,179,179)" stroke-linejoin="round" d="M 2901,5096 L 3051,5096"/>
 <path fill="none" stroke="rgb(179,179,179)" stroke-linejoin="round" d="M 2901,5096 L 3051,5096"/>
 <path fill="none" stroke="rgb(179,179,179)" stroke-linejoin="round" d="M 2901,4403 L 3051,4403"/>
 <path fill="none" stroke="rgb(179,179,179)" stroke-linejoin="round" d="M 2901,4403 L 3051,4403"/>
 <path fill="none" stroke="rgb(179,179,179)" stroke-linejoin="round" d="M 2901,3710 L 3051,3710"/>
 <path fill="none" stroke="rgb(179,179,179)" stroke-linejoin="round" d="M 2901,3710 L 3051,3710"/>
 <path fill="none" stroke="rgb(179,179,179)" stroke-linejoin="round" d="M 2901,3016 L 3051,3016"/>
 <path fill="none" stroke="rgb(179,179,179)" stroke-linejoin="round" d="M 2901,3016 L 3051,3016"/>
 <path fill="none" stroke="rgb(179,179,179)" stroke-linejoin="round" d="M 2901,2323 L 3051,2323"/>
 <path fill="none" stroke="rgb(179,179,179)" stroke-linejoin="round" d="M 2901,2323 L 3051,2323"/>
 <path fill="none" stroke="rgb(179,179,179)" stroke-linejoin="round" d="M 3051,7177 L 3051,2323"/>
 <path fill="none" stroke="rgb(255,211,32)" stroke-width="80" stroke-linejoin="round" d="M 3282,7172 L 3291,7171 3301,7170 3321,7169 3330,7168 3341,7167 3361,7166 3372,7165 3383,7165 3406,7163 3418,7163 3430,7162 3442,7161 3456,7161 3469,7160 3483,7159 3498,7159 3513,7158 3528,7158 3544,7157 3561,7157 3579,7156 3597,7155 3616,7154 3635,7153 3656,7151 3677,7150 3699,7148 3722,7146 3746,7143 3771,7140 3797,7137 3824,7133 3852,7129 3881,7124 3911,7119 3942,7113 3975,7106 4008,7099 4043,7092 4079,7083 4117,7075 4155,7065 4195,7056 4237,7046 4279,7035 4323,7025 4368,7014 4415,7002 4463,6991 4512,6979 4563,6968 4615,6956 4669,6944 4724,6932 4781,6921 4839,6909 4899,6897 4960,6886 5023,6874 5088,6862 5155,6848 5225,6833 5298,6815 5373,6794 5452,6771 5535,6743 5621,6712 5711,6676 5806,6634 5905,6587 6009,6534 6118,6475 6232,6408 6352,6334 6477,6252 6609,6161 6747,6062 6891,5953 7042,5835 7198,5709 7360,5574 7528,5432 7700,5283 7877,5127 8057,4966 8242,4798 8430,4625 8622,4449 8817,4267 9014,4082 9214,3893 9416,3701 9619,3507 9824,3311 10029,3114 10236,2915 10442,2717"/>
 <path fill="rgb(255,211,32)" stroke="none" d="M 3157,7047 L 3282,7297 3407,7047 3157,7047 Z"/>
 <path fill="none" stroke="rgb(255,211,32)" stroke-linejoin="round" d="M 3157,7047 L 3282,7297 3407,7047 3157,7047 Z"/>
 <path fill="rgb(255,211,32)" stroke="none" d="M 3388,7033 L 3513,7283 3638,7033 3388,7033 Z"/>
 <path fill="none" stroke="rgb(255,211,32)" stroke-linejoin="round" d="M 3388,7033 L 3513,7283 3638,7033 3388,7033 Z"/>
 <path fill="rgb(255,211,32)" stroke="none" d="M 3850,6981 L 3975,7231 4100,6981 3850,6981 Z"/>
 <path fill="none" stroke="rgb(255,211,32)" stroke-linejoin="round" d="M 3850,6981 L 3975,7231 4100,6981 3850,6981 Z"/>
 <path fill="rgb(255,211,32)" stroke="none" d="M 4774,6772 L 4899,7022 5024,6772 4774,6772 Z"/>
 <path fill="none" stroke="rgb(255,211,32)" stroke-linejoin="round" d="M 4774,6772 L 4899,7022 5024,6772 4774,6772 Z"/>
 <path fill="rgb(255,211,32)" stroke="none" d="M 6622,5937 L 6747,6187 6872,5937 6622,5937 Z"/>
 <path fill="none" stroke="rgb(255,211,32)" stroke-linejoin="round" d="M 6622,5937 L 6747,6187 6872,5937 6622,5937 Z"/>
 <path fill="rgb(255,211,32)" stroke="none" d="M 10317,2592 L 10442,2842 10567,2592 10317,2592 Z"/>
 <path fill="none" stroke="rgb(255,211,32)" stroke-linejoin="round" d="M 10317,2592 L 10442,2842 10567,2592 10317,2592 Z"/>
 <path fill="none" stroke="rgb(255,66,14)" stroke-width="80" stroke-linejoin="round" d="M 3282,7171 L 3291,7171 3301,7170 3321,7169 3330,7168 3341,7167 3361,7166 3372,7165 3383,7165 3406,7163 3418,7163 3430,7162 3442,7161 3456,7161 3469,7160 3483,7160 3498,7159 3513,7158 3528,7158 3544,7157 3561,7157 3579,7156 3597,7155 3616,7154 3635,7153 3656,7152 3677,7150 3699,7148 3722,7146 3746,7144 3771,7141 3797,7137 3824,7134 3852,7129 3881,7125 3911,7119 3942,7114 3975,7107 4008,7100 4043,7093 4079,7084 4117,7076 4155,7066 4195,7057 4237,7047 4279,7037 4323,7026 4368,7015 4415,7004 4463,6992 4512,6981 4563,6969 4615,6958 4669,6946 4724,6934 4781,6923 4839,6911 4899,6900 4960,6888 5023,6877 5088,6864 5155,6850 5225,6835 5298,6817 5373,6797 5452,6773 5535,6746 5621,6715 5711,6679 5806,6638 5905,6591 6009,6539 6118,6479 6232,6413 6352,6340 6477,6258 6609,6168 6747,6069 6891,5961 7042,5844 7198,5719 7360,5585 7528,5444 7700,5296 7877,5141 8057,4981 8242,4814 8430,4643 8622,4468 8817,4287 9014,4103 9214,3916 9416,3725 9619,3533 9824,3338 10029,3142 10236,2946 10442,2748"/>
 <path fill="rgb(255,66,14)" stroke="none" d="M 3157,7171 L 3282,7296 3407,7171 3282,7046 3157,7171 Z"/>
 <path fill="none" stroke="rgb(255,66,14)" stroke-linejoin="round" d="M 3157,7171 L 3282,7296 3407,7171 3282,7046 3157,7171 Z"/>
 <path fill="rgb(255,66,14)" stroke="none" d="M 3388,7158 L 3513,7283 3638,7158 3513,7033 3388,7158 Z"/>
 <path fill="none" stroke="rgb(255,66,14)" stroke-linejoin="round" d="M 3388,7158 L 3513,7283 3638,7158 3513,7033 3388,7158 Z"/>
 <path fill="rgb(255,66,14)" stroke="none" d="M 3850,7107 L 3975,7232 4100,7107 3975,6982 3850,7107 Z"/>
 <path fill="none" stroke="rgb(255,66,14)" stroke-linejoin="round" d="M 3850,7107 L 3975,7232 4100,7107 3975,6982 3850,7107 Z"/>
 <path fill="rgb(255,66,14)" stroke="none" d="M 4774,6900 L 4899,7025 5024,6900 4899,6775 4774,6900 Z"/>
 <path fill="none" stroke="rgb(255,66,14)" stroke-linejoin="round" d="M 4774,6900 L 4899,7025 5024,6900 4899,6775 4774,6900 Z"/>
 <path fill="rgb(255,66,14)" stroke="none" d="M 6622,6069 L 6747,6194 6872,6069 6747,5944 6622,6069 Z"/>
 <path fill="none" stroke="rgb(255,66,14)" stroke-linejoin="round" d="M 6622,6069 L 6747,6194 6872,6069 6747,5944 6622,6069 Z"/>
 <path fill="rgb(255,66,14)" stroke="none" d="M 10317,2748 L 10442,2873 10567,2748 10442,2623 10317,2748 Z"/>
 <path fill="none" stroke="rgb(255,66,14)" stroke-linejoin="round" d="M 10317,2748 L 10442,2873 10567,2748 10442,2623 10317,2748 Z"/>
 <path fill="none" stroke="rgb(0,69,134)" stroke-width="80" stroke-linejoin="round" d="M 3282,7172 L 3291,7171 3301,7170 3321,7169 3330,7168 3341,7167 3361,7166 3372,7165 3383,7165 3406,7163 3418,7163 3430,7162 3442,7161 3456,7161 3469,7160 3483,7160 3498,7159 3513,7158 3528,7158 3544,7157 3561,7157 3579,7156 3597,7155 3616,7154 3635,7153 3656,7152 3677,7150 3699,7148 3722,7146 3746,7143 3771,7140 3797,7137 3824,7133 3852,7129 3881,7124 3911,7119 3942,7113 3975,7107 4008,7100 4043,7092 4079,7084 4117,7075 4155,7066 4195,7057 4237,7047 4279,7036 4323,7026 4368,7015 4415,7004 4463,6992 4512,6981 4563,6969 4615,6957 4669,6946 4724,6934 4781,6922 4839,6911 4899,6900 4960,6888 5023,6877 5088,6864 5155,6850 5225,6835 5298,6817 5373,6797 5452,6774 5535,6746 5621,6715 5711,6679 5806,6638 5905,6592 6009,6539 6118,6480 6232,6414 6352,6340 6477,6259 6609,6169 6747,6070 6891,5962 7042,5845 7198,5719 7360,5586 7528,5445 7700,5297 7877,5142 8057,4982 8242,4815 8430,4644 8622,4469 8817,4288 9014,4104 9214,3916 9416,3726 9619,3534 9824,3339 10029,3143 10236,2946 10442,2749"/>
 <path fill="rgb(0,69,134)" stroke="none" d="M 3157,7047 L 3157,7297 3407,7297 3407,7047 3157,7047 Z"/>
 <path fill="none" stroke="rgb(0,69,134)" stroke-linejoin="round" d="M 3157,7047 L 3157,7297 3407,7297 3407,7047 3157,7047 Z"/>
 <path fill="rgb(0,69,134)" stroke="none" d="M 3388,7033 L 3388,7283 3638,7283 3638,7033 3388,7033 Z"/>
 <path fill="none" stroke="rgb(0,69,134)" stroke-linejoin="round" d="M 3388,7033 L 3388,7283 3638,7283 3638,7033 3388,7033 Z"/>
 <path fill="rgb(0,69,134)" stroke="none" d="M 3850,6982 L 3850,7232 4100,7232 4100,6982 3850,6982 Z"/>
 <path fill="none" stroke="rgb(0,69,134)" stroke-linejoin="round" d="M 3850,6982 L 3850,7232 4100,7232 4100,6982 3850,6982 Z"/>
 <path fill="rgb(0,69,134)" stroke="none" d="M 4774,6775 L 4774,7025 5024,7025 5024,6775 4774,6775 Z"/>
 <path fill="none" stroke="rgb(0,69,134)" stroke-linejoin="round" d="M 4774,6775 L 4774,7025 5024,7025 5024,6775 4774,6775 Z"/>
 <path fill="rgb(0,69,134)" stroke="none" d="M 6622,5945 L 6622,6195 6872,6195 6872,5945 6622,5945 Z"/>
 <path fill="none" stroke="rgb(0,69,134)" stroke-linejoin="round" d="M 6622,5945 L 6622,6195 6872,6195 6872,5945 6622,5945 Z"/>
 <path fill="rgb(0,69,134)" stroke="none" d="M 10317,2624 L 10317,2874 10567,2874 10567,2624 10317,2624 Z"/>
 <path fill="none" stroke="rgb(0,69,134)" stroke-linejoin="round" d="M 10317,2624 L 10317,2874 10567,2874 10567,2624 10317,2624 Z"/>
 <text class="SVGTextShape"><tspan class="TextParagraph" font-family="Liberation Sans, sans-serif" font-size="353px" font-weight="400"><tspan class="TextPosition" x="2958" y="7745"><tspan fill="rgb(0,0,0)" stroke="none" style="white-space: pre">0</tspan></tspan></tspan></text>
 <text class="SVGTextShape"><tspan class="TextParagraph" font-family="Liberation Sans, sans-serif" font-size="353px" font-weight="400"><tspan class="TextPosition" x="3582" y="7745"><tspan fill="rgb(0,0,0)" stroke="none" style="white-space: pre">1000</tspan></tspan></tspan></text>
 <text class="SVGTextShape"><tspan class="TextParagraph" font-family="Liberation Sans, sans-serif" font-size="353px" font-weight="400"><tspan class="TextPosition" x="4484" y="7745"><tspan fill="rgb(0,0,0)" stroke="none" style="white-space: pre">2000</tspan></tspan></tspan></text>
 <text class="SVGTextShape"><tspan class="TextParagraph" font-family="Liberation Sans, sans-serif" font-size="353px" font-weight="400"><tspan class="TextPosition" x="5387" y="7745"><tspan fill="rgb(0,0,0)" stroke="none" style="white-space: pre">3000</tspan></tspan></tspan></text>
 <text class="SVGTextShape"><tspan class="TextParagraph" font-family="Liberation Sans, sans-serif" font-size="353px" font-weight="400"><tspan class="TextPosition" x="6289" y="7745"><tspan fill="rgb(0,0,0)" stroke="none" style="white-space: pre">4000</tspan></tspan></tspan></text>
 <text class="SVGTextShape"><tspan class="TextParagraph" font-family="Liberation Sans, sans-serif" font-size="353px" font-weight="400"><tspan class="TextPosition" x="7192" y="7745"><tspan fill="rgb(0,0,0)" stroke="none" style="white-space: pre">5000</tspan></tspan></tspan></text>
 <text class="SVGTextShape"><tspan class="TextParagraph" font-family="Liberation Sans, sans-serif" font-size="353px" font-weight="400"><tspan class="TextPosition" x="8094" y="7745"><tspan fill="rgb(0,0,0)" stroke="none" style="white-space: pre">6000</tspan></tspan></tspan></text>
 <text class="SVGTextShape"><tspan class="TextParagraph" font-family="Liberation Sans, sans-serif" font-size="353px" font-weight="400"><tspan class="TextPosition" x="8997" y="7745"><tspan fill="rgb(0,0,0)" stroke="none" style="white-space: pre">7000</tspan></tspan></tspan></text>
 <text class="SVGTextShape"><tspan class="TextParagraph" font-family="Liberation Sans, sans-serif" font-size="353px" font-weight="400"><tspan class="TextPosition" x="9899" y="7745"><tspan fill="rgb(0,0,0)" stroke="none" style="white-space: pre">8000</tspan></tspan></tspan></text>
 <text class="SVGTextShape"><tspan class="TextParagraph" font-family="Liberation Sans, sans-serif" font-size="353px" font-weight="400"><tspan class="TextPosition" x="10802" y="7745"><tspan fill="rgb(0,0,0)" stroke="none" style="white-space: pre">9000</tspan></tspan></tspan></text>
 <text class="SVGTextShape"><tspan class="TextParagraph" font-family="Liberation Sans, sans-serif" font-size="353px" font-weight="400"><tspan class="TextPosition" x="1319" y="7298"><tspan fill="rgb(0,0,0)" stroke="none" style="white-space: pre">0.00E+00</tspan></tspan></tspan></text>
 <text class="SVGTextShape"><tspan class="TextParagraph" font-family="Liberation Sans, sans-serif" font-size="353px" font-weight="400"><tspan class="TextPosition" x="1319" y="6604"><tspan fill="rgb(0,0,0)" stroke="none" style="white-space: pre">2.00E+01</tspan></tspan></tspan></text>
 <text class="SVGTextShape"><tspan class="TextParagraph" font-family="Liberation Sans, sans-serif" font-size="353px" font-weight="400"><tspan class="TextPosition" x="1319" y="5910"><tspan fill="rgb(0,0,0)" stroke="none" style="white-space: pre">4.00E+01</tspan></tspan></tspan></text>
 <text class="SVGTextShape"><tspan class="TextParagraph" font-family="Liberation Sans, sans-serif" font-size="353px" font-weight="400"><tspan class="TextPosition" x="1319" y="5217"><tspan fill="rgb(0,0,0)" stroke="none" style="white-space: pre">6.00E+01</tspan></tspan></tspan></text>
 <text class="SVGTextShape"><tspan class="TextParagraph" font-family="Liberation Sans, sans-serif" font-size="353px" font-weight="400"><tspan class="TextPosition" x="1319" y="4523"><tspan fill="rgb(0,0,0)" stroke="none" style="white-space: pre">8.00E+01</tspan></tspan></tspan></text>
 <text class="SVGTextShape"><tspan class="TextParagraph" font-family="Liberation Sans, sans-serif" font-size="353px" font-weight="400"><tspan class="TextPosition" x="1319" y="3830"><tspan fill="rgb(0,0,0)" stroke="none" style="white-space: pre">1.00E+02</tspan></tspan></tspan></text>
 <text class="SVGTextShape"><tspan class="TextParagraph" font-family="Liberation Sans, sans-serif" font-size="353px" font-weight="400"><tspan class="TextPosition" x="1319" y="3136"><tspan fill="rgb(0,0,0)" stroke="none" style="white-space: pre">1.20E+02</tspan></tspan></tspan></text>
 <text class="SVGTextShape"><tspan class="TextParagraph" font-family="Liberation Sans, sans-serif" font-size="353px" font-weight="400"><tspan class="TextPosition" x="1319" y="2443"><tspan fill="rgb(0,0,0)" stroke="none" style="white-space: pre">1.40E+02</tspan></tspan></tspan></text>
 <text class="SVGTextShape"><tspan class="TextParagraph" font-family="Liberation Sans, sans-serif" font-size="459px" font-weight="400"><tspan class="TextPosition" x="7802" y="838"><tspan fill="rgb(0,0,0)" stroke="none" style="white-space: pre">I3</tspan></tspan></tspan></text>
 <text class="SVGTextShape"><tspan class="TextParagraph" font-family="Liberation Sans, sans-serif" font-size="388px" font-weight="400"><tspan class="TextPosition" x="6307" y="1748"><tspan fill="rgb(0,0,0)" stroke="none" style="white-space: pre">Teórico v. Empírico</tspan></tspan></tspan></text>
 <path fill="none" stroke="rgb(0,69,134)" stroke-width="80" stroke-linejoin="round" d="M 11980,3988 L 12780,3988"/>
 <path fill="rgb(0,69,134)" stroke="none" d="M 12274,3883 L 12274,4094 12485,4094 12485,3883 12274,3883 Z"/>
 <path fill="none" stroke="rgb(0,69,134)" stroke-linejoin="round" d="M 12274,3883 L 12274,4094 12485,4094 12485,3883 12274,3883 Z"/>
 <path fill="none" stroke="rgb(255,66,14)" stroke-width="80" stroke-linejoin="round" d="M 11980,4486 L 12780,4486"/>
 <path fill="rgb(255,66,14)" stroke="none" d="M 12274,4486 L 12380,4591 12485,4486 12380,4381 12274,4486 Z"/>
 <path fill="none" stroke="rgb(255,66,14)" stroke-linejoin="round" d="M 12274,4486 L 12380,4591 12485,4486 12380,4381 12274,4486 Z"/>
 <path fill="none" stroke="rgb(255,211,32)" stroke-width="80" stroke-linejoin="round" d="M 11980,4983 L 12780,4983"/>
 <path fill="rgb(255,211,32)" stroke="none" d="M 12274,4878 L 12380,5089 12485,4878 12274,4878 Z"/>
 <path fill="none" stroke="rgb(255,211,32)" stroke-linejoin="round" d="M 12274,4878 L 12380,5089 12485,4878 12274,4878 Z"/>
 <text class="SVGTextShape"><tspan class="TextParagraph" font-family="Liberation Sans, sans-serif" font-size="353px" font-weight="400"><tspan class="TextPosition" x="12880" y="4108"><tspan fill="rgb(0,0,0)" stroke="none" style="white-space: pre">i3_mono_teorico</tspan></tspan></tspan></text>
 <text class="SVGTextShape"><tspan class="TextParagraph" font-family="Liberation Sans, sans-serif" font-size="353px" font-weight="400"><tspan class="TextPosition" x="12880" y="4605"><tspan fill="rgb(0,0,0)" stroke="none" style="white-space: pre">i3_mono_empirico</tspan></tspan></tspan></text>
 <text class="SVGTextShape"><tspan class="TextParagraph" font-family="Liberation Sans, sans-serif" font-size="353px" font-weight="400"><tspan class="TextPosition" x="12880" y="5103"><tspan fill="rgb(0,0,0)" stroke="none" style="white-space: pre">prediccion</tspan></tspan></tspan></text>
 <text class="SVGTextShape"><tspan class="TextParagraph" font-family="Liberation Sans, sans-serif" font-size="318px" font-weight="400"><tspan class="TextPosition" x="5611" y="8392"><tspan fill="rgb(0,0,0)" stroke="none" style="white-space: pre">Resolucion</tspan></tspan></tspan></text>
 <text class="SVGTextShape" transform="rotate(-90 824 5517)"><tspan class="TextParagraph" font-family="Liberation Sans, sans-serif" font-size="318px" font-weight="400"><tspan class="TextPosition" x="824" y="5517"><tspan fill="rgb(0,0,0)" stroke="none" style="white-space: pre">Tiempo</tspan></tspan></tspan></text>
</svg>